<?xml version="1.0" encoding="UTF-8"?>
<svg xmlns="http://www.w3.org/2000/svg" viewBox="0 0 900 240" role="img" aria-label="Panta Rhei Research Program">
  <title>Panta Rhei Research Program — horizontal lockup</title>
  <svg x="20" y="20" width="200" height="200" viewBox="0 0 445 480" xmlns="http://www.w3.org/2000/svg">
    <g transform="translate(-17 0)">
      <path d="M33.5921 52.642C33.5921 42.1212 42.1212 33.5921 52.642 33.5921L248.226 33.5921C258.747 33.5921 267.276 42.1212 267.276 52.642L267.276 248.226C267.276 258.747 258.747 267.276 248.226 267.276L52.642 267.276C42.1212 267.276 33.5921 258.747 33.5921 248.226Z" stroke="#000000" stroke-width="1.25188" fill="#FFFFFF" fill-rule="evenodd" transform="matrix(1 0 0 1.00198 86.4361 89.4773)"/>
      <text fill="#163e64" font-family="'Source Serif 4','Source Serif Pro',Palatino,Georgia,serif" font-weight="400" font-size="478" transform="matrix(0.417293 0 0 0.418118 138.595 242)">π</text>
      <text fill="#163e64" font-family="'Source Serif 4','Source Serif Pro',Palatino,Georgia,serif" font-weight="400" font-style="italic" font-size="478" transform="matrix(0.417293 0 0 0.418118 241.217 301)">ρ</text>
    </g>
  </svg>
  <text x="240" y="125" font-family="'Iowan Old Style',Palatino,Georgia,serif" font-size="56" font-weight="400" fill="#163e64">Panta Rhei</text>
  <text x="240" y="180" font-family="'Iowan Old Style',Palatino,Georgia,serif" font-size="34" font-weight="400" fill="#5b6772">Research Program</text>
</svg>