<?xml version="1.0" encoding="UTF-8" standalone="no"?>
<!DOCTYPE svg PUBLIC "-//W3C//DTD SVG 1.1//EN" "http://www.w3.org/Graphics/SVG/1.1/DTD/svg11.dtd">
<svg width="100%" height="100%" viewBox="0 0 3242 593" version="1.1" xmlns="http://www.w3.org/2000/svg" xmlns:xlink="http://www.w3.org/1999/xlink" xml:space="preserve" xmlns:serif="http://www.serif.com/" style="fill-rule:evenodd;clip-rule:evenodd;stroke-miterlimit:8;">
    <path d="M0,54.892c0,-30.316 24.573,-54.892 54.885,-54.892l472.566,0c30.312,0 54.885,24.576 54.885,54.892l0,482.793c0,30.316 -24.573,54.892 -54.885,54.892l-472.566,0c-30.312,0 -54.885,-24.576 -54.885,-54.892l0,-482.793Z" style="fill:#163e64;"/>
    <g transform="matrix(4.166667,0,0,4.166667,-392.886625,-505.645833)">
        <g transform="matrix(175.769107,0,0,175.789152,105.6361,207.113247)">
            <path d="M0.424,-0.405c0.001,-0.006 -0.006,-0.02 -0.01,-0.016c-0.02,0.018 -0.036,0.021 -0.049,0.021c-0.037,0 -0.188,-0.006 -0.222,-0.006c-0.027,0 -0.068,0.013 -0.092,0.035c-0.025,0.023 -0.04,0.062 -0.04,0.084c0,0.014 0.005,0.021 0.011,0.021c0.005,0 0.01,-0.007 0.015,-0.015c0.025,-0.044 0.058,-0.054 0.09,-0.054c0.025,0 0.05,0 0.067,0.002c0.003,0.001 0.007,0.006 0.007,0.009c-0.013,0.079 -0.038,0.192 -0.038,0.239c0,0.064 0.025,0.102 0.066,0.102c0.038,0 0.084,-0.034 0.096,-0.085c0.002,-0.009 -0.003,-0.02 -0.008,-0.018c-0.022,0.008 -0.039,0.009 -0.054,0.009c-0.03,0 -0.047,-0.026 -0.047,-0.05c0,-0.047 0.009,-0.146 0.02,-0.194c0.001,-0.004 0.006,-0.009 0.01,-0.009c0.008,0 0.084,0.007 0.105,0.007c0.016,0 0.032,-0.005 0.04,-0.014c0.011,-0.011 0.028,-0.041 0.033,-0.068Z" style="fill:#f6f7f3;fill-rule:nonzero;"/>
        </g>
        <g transform="matrix(122.06188,0,0,122.0758,164.523328,244.041147)">
            <path d="M0.088,-0.681c-0.048,0 -0.092,0.031 -0.115,0.064c-0.013,0.017 -0.017,0.03 -0.017,0.041c0,0.004 0.012,0.01 0.015,0.009c0.021,-0.009 0.053,-0.022 0.091,-0.022c0.12,0 0.139,0.097 0.159,0.165c0.004,0.016 0.003,0.021 -0.005,0.036c-0.005,0.006 -0.024,0.039 -0.034,0.061c-0.011,0.024 -0.153,0.293 -0.159,0.306c-0.001,0.003 0.003,0.016 0.01,0.02c0.016,0.012 0.053,0.02 0.06,0.02c0.015,0 0.034,-0.045 0.039,-0.056c0.005,-0.009 0.102,-0.254 0.106,-0.264c0.001,-0.004 0.011,-0.01 0.012,-0.002c0.002,0.011 0.046,0.198 0.058,0.24c0.012,0.044 0.035,0.08 0.074,0.08c0.038,0 0.062,-0.021 0.078,-0.061c0.006,-0.014 0.006,-0.027 0.006,-0.03c-0.001,-0.005 -0.006,-0.016 -0.01,-0.015c-0.016,0.004 -0.036,0.006 -0.045,0.006c-0.028,0 -0.056,-0.039 -0.064,-0.057c-0.027,-0.069 -0.087,-0.333 -0.107,-0.395c-0.035,-0.112 -0.081,-0.146 -0.152,-0.146Z" style="fill:#f6f7f3;fill-rule:nonzero;"/>
        </g>
        <g>
            <g transform="matrix(54,0,0,54,255.07881,249.5)">
                <path d="M0.037,-0.63c0,0.004 0.003,0.007 0.014,0.009c0.046,0.008 0.048,0.014 0.051,0.073c0.002,0.032 0.003,0.103 0.003,0.239c0,0.139 0,0.205 -0.004,0.246c-0.003,0.03 -0.008,0.045 -0.053,0.053c-0.008,0.001 -0.017,0.004 -0.017,0.008c0,0.005 0.008,0.007 0.02,0.007c0.013,0 0.056,-0.005 0.087,-0.005c0.03,-0 0.105,0.002 0.156,0.005c0.049,0.002 0.127,0.002 0.137,0.002c0.004,0 0.011,-0.002 0.017,-0.01c0.005,-0.007 0.022,-0.058 0.025,-0.067c0.004,-0.011 0.006,-0.025 0.002,-0.025c-0.004,0 -0.01,0.005 -0.015,0.014c-0.02,0.037 -0.039,0.058 -0.062,0.062c-0.015,0.003 -0.041,0.005 -0.094,0.005c-0.086,0 -0.113,-0.011 -0.124,-0.025c-0.009,-0.011 -0.011,-0.04 -0.014,-0.081c-0.001,-0.019 -0.002,-0.122 -0.002,-0.22c0,-0.091 0,-0.177 0.001,-0.194c0.004,-0.072 0.005,-0.078 0.049,-0.087c0.008,-0.002 0.012,-0.005 0.012,-0.009c0,-0.002 -0.004,-0.005 -0.016,-0.005c-0.017,0 -0.047,0.004 -0.073,0.004c-0.024,0 -0.054,-0.004 -0.084,-0.004c-0.011,0 -0.016,0.003 -0.016,0.005Z" style="fill:#163e64;fill-rule:nonzero;"/>
            </g>
            <g transform="matrix(54,0,0,54,283.910457,249.5)">
                <path d="M0.045,-0.629c0,0.004 0.004,0.007 0.014,0.009c0.036,0.008 0.047,0.02 0.047,0.079c0,0.208 -0.001,0.305 -0.005,0.467c-0.001,0.044 -0.02,0.058 -0.056,0.064c-0.011,0.002 -0.018,0.004 -0.018,0.008c0,0.004 0.006,0.007 0.018,0.007c0.011,0 0.063,-0.005 0.096,-0.005c0.082,-0 0.196,0.004 0.302,0.004c0.006,0 0.01,-0.005 0.013,-0.011c0.006,-0.012 0.014,-0.047 0.022,-0.074c0.004,-0.012 0.003,-0.018 -0.001,-0.018c-0.004,0 -0.008,0.004 -0.018,0.018c-0.01,0.014 -0.026,0.038 -0.035,0.046c-0.018,0.016 -0.031,0.019 -0.127,0.019c-0.072,0 -0.086,-0.002 -0.103,-0.011c-0.02,-0.01 -0.027,-0.035 -0.027,-0.046c0,-0.019 -0.003,-0.156 -0.003,-0.206c0,-0.022 0,-0.023 0.009,-0.023c0.144,0 0.174,0.001 0.195,0.007c0.014,0.005 0.021,0.021 0.024,0.03c0.007,0.017 0.008,0.022 0.012,0.022c0.002,0 0.009,-0.006 0.006,-0.021c-0.001,-0.006 -0.004,-0.034 -0.002,-0.054c0.002,-0.018 0.006,-0.044 0.006,-0.05c0,-0.007 -0.002,-0.011 -0.005,-0.011c-0.003,0 -0.006,0.003 -0.01,0.011c-0.01,0.02 -0.019,0.032 -0.026,0.035c-0.008,0.005 -0.016,0.007 -0.067,0.007l-0.136,0c-0.003,0 -0.006,-0.003 -0.006,-0.018l0,-0.233c0,-0.034 0.004,-0.036 0.012,-0.037c0.022,-0.002 0.173,-0.002 0.2,0.003c0.018,0.003 0.033,0.013 0.052,0.058c0.005,0.011 0.007,0.014 0.01,0.014c0.004,0 0.005,-0.009 0.004,-0.015c-0.005,-0.023 -0.006,-0.052 -0.007,-0.064c-0.002,-0.012 -0.005,-0.017 -0.009,-0.017c-0.011,0 -0.023,0.002 -0.06,0.002c-0.04,0 -0.185,0.002 -0.23,0.002c-0.032,0 -0.054,-0.003 -0.077,-0.003c-0.008,0 -0.014,0.003 -0.014,0.005Z" style="fill:#163e64;fill-rule:nonzero;"/>
            </g>
            <g transform="matrix(54,0,0,54,313.444103,249.5)">
                <path d="M0.333,-0.646c-0.004,0 -0.005,0.006 -0.006,0.01c-0.004,0.025 -0.022,0.043 -0.028,0.05c-0.001,0.001 -0.003,0.007 -0.003,0.011c0,0.009 -0.001,0.016 -0.006,0.029c-0.062,0.154 -0.152,0.377 -0.179,0.434c-0.039,0.085 -0.045,0.092 -0.091,0.101c-0.01,0.002 -0.02,0.004 -0.02,0.009c0,0.005 0.006,0.007 0.017,0.007c0.021,0 0.038,-0.005 0.063,-0.005c0.037,-0 0.08,0.005 0.099,0.005c0.01,0 0.019,-0.002 0.019,-0.007c0,-0.003 -0.005,-0.007 -0.015,-0.009c-0.019,-0.004 -0.033,-0.008 -0.041,-0.016c-0.011,-0.011 -0.012,-0.029 0,-0.07c0.016,-0.054 0.046,-0.13 0.055,-0.15c0.003,-0.007 0.011,-0.02 0.014,-0.02c0.022,-0.001 0.159,0 0.196,-0.003c0.003,0 0.009,0.006 0.012,0.012c0.037,0.097 0.073,0.189 0.073,0.201c0,0.019 -0.001,0.039 -0.046,0.045c-0.009,0.001 -0.019,0.005 -0.019,0.009c0,0.004 0.006,0.007 0.016,0.007c0.021,0 0.063,-0.004 0.09,-0.004c0.054,-0 0.065,0.003 0.081,0.003c0.009,0 0.018,-0.002 0.018,-0.007c0,-0.003 -0.006,-0.007 -0.017,-0.009c-0.026,-0.006 -0.035,-0.015 -0.061,-0.077c-0.067,-0.156 -0.109,-0.256 -0.186,-0.462c-0.014,-0.035 -0.024,-0.06 -0.028,-0.086c-0.002,-0.006 -0.004,-0.008 -0.007,-0.008Zm0.064,0.345c-0.012,0.004 -0.059,0.004 -0.093,0.004c-0.038,0 -0.064,0 -0.08,-0.001c-0.005,0 -0.004,-0.009 -0.003,-0.009c0.014,-0.042 0.054,-0.153 0.082,-0.221c0.003,-0.007 0.005,-0.01 0.008,-0.003c0.017,0.041 0.041,0.094 0.086,0.22c0.001,0.004 0.002,0.009 0,0.01Z" style="fill:#163e64;fill-rule:nonzero;"/>
            </g>
            <g transform="matrix(54,0,0,54,350.537749,249.5)">
                <path d="M0.021,-0.629c0,0.005 0.005,0.007 0.019,0.009c0.024,0.004 0.036,0.009 0.049,0.019c0.009,0.007 0.018,0.014 0.018,0.073c0,0.062 -0.008,0.402 -0.011,0.438c-0.005,0.058 -0.014,0.068 -0.053,0.079c-0.011,0.003 -0.019,0.005 -0.019,0.01c0,0.003 0.002,0.006 0.017,0.006c0.007,0 0.038,-0.005 0.069,-0.005c0.032,-0 0.059,0.005 0.076,0.005c0.01,0 0.019,-0.001 0.019,-0.006c0,-0.006 -0.007,-0.008 -0.018,-0.011c-0.014,-0.004 -0.041,-0.014 -0.049,-0.032c-0.008,-0.017 -0.011,-0.041 -0.011,-0.085c0,-0.043 0.003,-0.376 0.003,-0.416c0,-0.007 0.003,-0.008 0.008,-0.002c0.14,0.164 0.394,0.455 0.457,0.532c0.018,0.022 0.029,0.033 0.033,0.033c0.007,0 0.008,-0.009 0.007,-0.029c-0.002,-0.053 0,-0.108 0,-0.2c0,-0.094 0.002,-0.318 0.006,-0.348c0.004,-0.026 0.005,-0.047 0.044,-0.06c0.008,-0.003 0.017,-0.005 0.017,-0.01c0,-0.004 -0.006,-0.005 -0.016,-0.005c-0.011,0 -0.033,0.003 -0.063,0.003c-0.023,0 -0.049,-0.003 -0.067,-0.003c-0.011,0 -0.02,0.001 -0.02,0.006c0,0.004 0.007,0.006 0.019,0.009c0.031,0.008 0.051,0.017 0.051,0.077c0.001,0.091 0.005,0.386 0.005,0.426c0,0.011 -0.005,0.009 -0.006,0.008c-0.097,-0.108 -0.37,-0.417 -0.435,-0.501c-0.014,-0.018 -0.018,-0.022 -0.023,-0.022c-0.036,0 -0.083,-0.005 -0.104,-0.005c-0.017,0 -0.022,0.003 -0.022,0.007Z" style="fill:#163e64;fill-rule:nonzero;"/>
            </g>
            <g transform="matrix(54,0,0,54,392.599396,249.5)">
                <path d="M0.316,-0.397c0,-0.019 0,-0.028 -0.008,-0.028c-0.013,0 -0.033,0.007 -0.043,0.015c-0.007,0.005 -0.007,0.012 -0.007,0.018l0,0.17c0,0.001 -0.002,0.005 -0.005,0.005c-0.133,0 -0.179,-0.001 -0.19,-0.003c-0.006,-0.001 -0.005,-0.005 -0.004,-0.008l0.286,-0.411c0.01,-0.013 0.008,-0.018 -0.002,-0.017l-0.008,0.001c-0.005,0.001 -0.007,0.001 -0.015,0.013l-0.291,0.425c-0.012,0.017 -0.014,0.021 -0.014,0.026c0,0.003 0.003,0.006 0.011,0.006c0.02,-0.001 0.134,-0.003 0.227,-0.003c0.004,0 0.005,0.007 0.005,0.01c0,0.013 0,0.064 -0.002,0.088c-0.004,0.063 -0.002,0.072 -0.05,0.078c-0.012,0.002 -0.018,0.005 -0.018,0.01c0,0.002 0.005,0.005 0.017,0.005c0.029,0 0.046,-0.003 0.078,-0.003c0.026,-0 0.049,0.003 0.068,0.003c0.014,0 0.019,-0.004 0.019,-0.007c0,-0.004 -0.002,-0.006 -0.017,-0.009c-0.037,-0.006 -0.034,-0.022 -0.036,-0.068c-0.001,-0.024 -0.001,-0.083 -0.001,-0.101c0,-0.003 0.001,-0.007 0.003,-0.007l0.073,0.001c0.008,0 0.014,-0.022 0.014,-0.026c0,-0.003 -0.002,-0.005 -0.004,-0.005c-0.024,0.001 -0.041,0.002 -0.082,0.002c-0.002,0 -0.004,-0.002 -0.004,-0.006l0,-0.174Z" style="fill:#163e64;fill-rule:nonzero;"/>
            </g>
            <g transform="matrix(54,0,0,54,437.5786,249.5)">
                <path d="M0.045,-0.629c0,0.005 0.007,0.008 0.016,0.01c0.038,0.009 0.039,0.019 0.041,0.055c0.003,0.062 0.003,0.117 0.003,0.224c0,0.11 0,0.241 -0.003,0.274c-0.002,0.039 -0.006,0.045 -0.045,0.054c-0.014,0.003 -0.018,0.006 -0.018,0.01c0,0.004 0.008,0.006 0.015,0.006c0.007,0 0.034,-0.004 0.068,-0.004c0.04,-0 0.081,0.006 0.091,0.006c0.011,0 0.021,0 0.021,-0.006c0,-0.004 -0.005,-0.007 -0.014,-0.009c-0.047,-0.011 -0.051,-0.017 -0.053,-0.057c-0.002,-0.045 -0.003,-0.204 -0.002,-0.22c0,-0.004 0.008,-0.013 0.01,-0.013c0.162,0 0.169,0.002 0.184,0.005c0.012,0.003 0.022,0.015 0.028,0.032c0.006,0.016 0.01,0.022 0.014,0.022c0.004,0 0.006,-0.003 0.006,-0.016c0,-0.014 -0.004,-0.026 -0.004,-0.044c0,-0.02 0.004,-0.049 0.005,-0.061c0.001,-0.011 -0.001,-0.014 -0.005,-0.014c-0.002,0 -0.005,0.003 -0.01,0.014c-0.016,0.034 -0.032,0.035 -0.044,0.036c-0.016,0.001 -0.076,0.003 -0.174,0.003c-0.002,0 -0.009,-0.003 -0.009,-0.013c-0.002,-0.141 0,-0.231 0,-0.259c0,-0.005 0.008,-0.019 0.016,-0.019c0.096,0 0.142,0 0.175,0.003c0.035,0.003 0.056,0.014 0.073,0.052c0.005,0.011 0.008,0.02 0.013,0.02c0.004,0 0.006,-0.008 0.004,-0.018c-0.002,-0.014 -0.005,-0.052 -0.007,-0.068c-0.001,-0.007 -0.008,-0.01 -0.033,-0.01c-0.038,0 -0.139,0.003 -0.235,0.003c-0.044,0 -0.103,-0.004 -0.112,-0.004c-0.007,0 -0.015,0.002 -0.015,0.006Z" style="fill:#163e64;fill-rule:nonzero;"/>
            </g>
            <g transform="matrix(54,0,0,54,465.438246,249.5)">
                <path d="M0.368,-0.649c-0.064,0 -0.142,0.024 -0.193,0.064c-0.096,0.073 -0.129,0.161 -0.129,0.261c-0,0.183 0.148,0.342 0.326,0.342c0.044,-0 0.089,-0.012 0.129,-0.03c0.077,-0.034 0.187,-0.134 0.187,-0.296c0,-0.186 -0.151,-0.341 -0.32,-0.341Zm-0.02,0.015c0.083,0 0.138,0.036 0.177,0.08c0.06,0.068 0.094,0.162 0.094,0.247c0,0.136 -0.066,0.229 -0.121,0.27c-0.034,0.025 -0.069,0.036 -0.108,0.036c-0.057,0 -0.133,-0.02 -0.201,-0.111c-0.043,-0.058 -0.073,-0.14 -0.073,-0.211c0,-0.078 0.019,-0.171 0.075,-0.236c0.034,-0.039 0.101,-0.075 0.157,-0.075Z" style="fill:#163e64;fill-rule:nonzero;"/>
            </g>
            <g transform="matrix(54,0,0,54,507.283893,249.5)">
                <path d="M0.236,-0.636c-0.033,0 -0.07,0.005 -0.107,0.005c-0.036,0 -0.06,-0.004 -0.074,-0.004c-0.013,0 -0.018,0.003 -0.018,0.006c0,0.005 0.008,0.007 0.017,0.009c0.042,0.007 0.044,0.021 0.046,0.05c0.002,0.032 0.006,0.085 0.006,0.225c0,0.145 -0.002,0.22 -0.005,0.277c-0.003,0.042 -0.014,0.051 -0.045,0.057c-0.013,0.003 -0.02,0.005 -0.02,0.009c0,0.005 0.007,0.007 0.017,0.007c0.019,0 0.048,-0.005 0.085,-0.005c0.034,-0 0.053,0.005 0.074,0.005c0.012,0 0.02,-0.003 0.02,-0.007c0,-0.004 -0.004,-0.006 -0.015,-0.008c-0.036,-0.006 -0.043,-0.016 -0.047,-0.028c-0.003,-0.009 -0.007,-0.045 -0.008,-0.091c-0.001,-0.04 0,-0.168 0.002,-0.178c0.001,-0.004 0.005,-0.008 0.01,-0.008c0.026,-0.001 0.04,0.001 0.05,0.004c0.012,0.003 0.021,0.012 0.031,0.023c0.014,0.017 0.098,0.155 0.149,0.22c0.037,0.046 0.077,0.079 0.138,0.079c0.014,0 0.03,-0.001 0.038,-0.004c0.008,-0.003 0.012,-0.006 0.012,-0.008c0,-0.003 -0.005,-0.006 -0.013,-0.006c-0.018,0 -0.047,-0.009 -0.079,-0.041c-0.021,-0.021 -0.042,-0.046 -0.073,-0.088c-0.028,-0.038 -0.093,-0.14 -0.113,-0.179c-0.004,-0.01 -0.006,-0.017 -0.002,-0.019c0.016,-0.006 0.044,-0.018 0.061,-0.033c0.023,-0.018 0.057,-0.047 0.057,-0.114c0,-0.044 -0.019,-0.089 -0.062,-0.12c-0.033,-0.024 -0.072,-0.035 -0.132,-0.035Zm-0.034,0.015c0.06,0 0.096,0.015 0.123,0.04c0.026,0.024 0.042,0.062 0.042,0.115c0,0.054 -0.032,0.095 -0.06,0.115c-0.02,0.013 -0.082,0.021 -0.111,0.021c-0.008,0 -0.021,0 -0.027,-0.001c-0.003,0 -0.007,-0.003 -0.007,-0.018c0,-0.016 0,-0.228 0.001,-0.248c0.001,-0.016 0.004,-0.016 0.006,-0.017c0.005,-0.003 0.02,-0.007 0.033,-0.007Z" style="fill:#163e64;fill-rule:nonzero;"/>
            </g>
            <g transform="matrix(54,0,0,54,539.193539,249.5)">
                <path d="M0.017,-0.63c0,0.003 0.006,0.007 0.016,0.009c0.019,0.005 0.038,0.006 0.056,0.027c0.017,0.02 0.024,0.035 0.024,0.095c0,0.059 -0.014,0.289 -0.02,0.348c-0.006,0.058 -0.011,0.093 -0.021,0.107c-0.011,0.015 -0.022,0.029 -0.054,0.034c-0.013,0.002 -0.018,0.006 -0.018,0.009c0,0.005 0.006,0.007 0.017,0.007c0.01,0 0.037,-0.006 0.074,-0.006c0.037,-0 0.073,0.004 0.083,0.005c0.011,0.001 0.02,-0.001 0.02,-0.006c0,-0.004 -0.006,-0.008 -0.017,-0.01c-0.02,-0.005 -0.045,-0.014 -0.051,-0.038c-0.006,-0.022 -0.006,-0.045 -0.006,-0.075c0,-0.029 0.012,-0.298 0.016,-0.363c0.001,-0.013 0.004,-0.013 0.009,-0.005c0.043,0.089 0.171,0.35 0.222,0.456c0.011,0.023 0.019,0.04 0.024,0.04c0.005,-0 0.009,-0.006 0.014,-0.016c0.051,-0.113 0.181,-0.36 0.248,-0.492c0.002,-0.005 0.005,-0.009 0.005,0.004c0,0.04 0,0.32 -0.003,0.375c-0.003,0.085 -0.01,0.099 -0.052,0.11c-0.011,0.001 -0.021,0.005 -0.021,0.009c0,0.007 0.011,0.008 0.022,0.008c0.015,0 0.032,-0.002 0.075,-0.002c0.022,-0 0.079,0.006 0.091,0.006c0.013,0 0.018,-0.002 0.018,-0.006c0,-0.005 -0.006,-0.008 -0.015,-0.011c-0.039,-0.011 -0.05,-0.019 -0.054,-0.078c-0.002,-0.031 -0.005,-0.129 -0.005,-0.238c0,-0.051 0.001,-0.179 0.003,-0.21c0.003,-0.06 0.008,-0.071 0.067,-0.086c0.007,-0.001 0.014,-0.005 0.014,-0.008c0,-0.004 -0.006,-0.006 -0.014,-0.006c-0.015,0 -0.078,0.006 -0.098,0.006c-0.005,0 -0.008,0.01 -0.009,0.012c-0.006,0.02 -0.021,0.062 -0.03,0.081c-0.025,0.05 -0.154,0.297 -0.227,0.436c-0.004,0.007 -0.006,0.012 -0.01,0.005c-0.075,-0.141 -0.215,-0.418 -0.262,-0.52c-0.005,-0.011 -0.01,-0.014 -0.013,-0.014c-0.023,0 -0.082,-0.003 -0.099,-0.004c-0.01,-0.001 -0.019,0.001 -0.019,0.005Z" style="fill:#163e64;fill-rule:nonzero;"/>
            </g>
            <g transform="matrix(54,0,0,54,586.061186,249.5)">
                <path d="M0.333,-0.646c-0.004,0 -0.005,0.006 -0.006,0.01c-0.004,0.025 -0.022,0.043 -0.028,0.05c-0.001,0.001 -0.003,0.007 -0.003,0.011c0,0.009 -0.001,0.016 -0.006,0.029c-0.062,0.154 -0.152,0.377 -0.179,0.434c-0.039,0.085 -0.045,0.092 -0.091,0.101c-0.01,0.002 -0.02,0.004 -0.02,0.009c0,0.005 0.006,0.007 0.017,0.007c0.021,0 0.038,-0.005 0.063,-0.005c0.037,-0 0.08,0.005 0.099,0.005c0.01,0 0.019,-0.002 0.019,-0.007c0,-0.003 -0.005,-0.007 -0.015,-0.009c-0.019,-0.004 -0.033,-0.008 -0.041,-0.016c-0.011,-0.011 -0.012,-0.029 0,-0.07c0.016,-0.054 0.046,-0.13 0.055,-0.15c0.003,-0.007 0.011,-0.02 0.014,-0.02c0.022,-0.001 0.159,0 0.196,-0.003c0.003,0 0.009,0.006 0.012,0.012c0.037,0.097 0.073,0.189 0.073,0.201c0,0.019 -0.001,0.039 -0.046,0.045c-0.009,0.001 -0.019,0.005 -0.019,0.009c0,0.004 0.006,0.007 0.016,0.007c0.021,0 0.063,-0.004 0.09,-0.004c0.054,-0 0.065,0.003 0.081,0.003c0.009,0 0.018,-0.002 0.018,-0.007c0,-0.003 -0.006,-0.007 -0.017,-0.009c-0.026,-0.006 -0.035,-0.015 -0.061,-0.077c-0.067,-0.156 -0.109,-0.256 -0.186,-0.462c-0.014,-0.035 -0.024,-0.06 -0.028,-0.086c-0.002,-0.006 -0.004,-0.008 -0.007,-0.008Zm0.064,0.345c-0.012,0.004 -0.059,0.004 -0.093,0.004c-0.038,0 -0.064,0 -0.08,-0.001c-0.005,0 -0.004,-0.009 -0.003,-0.009c0.014,-0.042 0.054,-0.153 0.082,-0.221c0.003,-0.007 0.005,-0.01 0.008,-0.003c0.017,0.041 0.041,0.094 0.086,0.22c0.001,0.004 0.002,0.009 0,0.01Z" style="fill:#163e64;fill-rule:nonzero;"/>
            </g>
            <g transform="matrix(54,0,0,54,623.154832,249.5)">
                <path d="M0.037,-0.63c0,0.004 0.003,0.007 0.014,0.009c0.046,0.008 0.048,0.014 0.051,0.073c0.002,0.032 0.003,0.103 0.003,0.239c0,0.139 0,0.205 -0.004,0.246c-0.003,0.03 -0.008,0.045 -0.053,0.053c-0.008,0.001 -0.017,0.004 -0.017,0.008c0,0.005 0.008,0.007 0.02,0.007c0.013,0 0.056,-0.005 0.087,-0.005c0.03,-0 0.105,0.002 0.156,0.005c0.049,0.002 0.127,0.002 0.137,0.002c0.004,0 0.011,-0.002 0.017,-0.01c0.005,-0.007 0.022,-0.058 0.025,-0.067c0.004,-0.011 0.006,-0.025 0.002,-0.025c-0.004,0 -0.01,0.005 -0.015,0.014c-0.02,0.037 -0.039,0.058 -0.062,0.062c-0.015,0.003 -0.041,0.005 -0.094,0.005c-0.086,0 -0.113,-0.011 -0.124,-0.025c-0.009,-0.011 -0.011,-0.04 -0.014,-0.081c-0.001,-0.019 -0.002,-0.122 -0.002,-0.22c0,-0.091 0,-0.177 0.001,-0.194c0.004,-0.072 0.005,-0.078 0.049,-0.087c0.008,-0.002 0.012,-0.005 0.012,-0.009c0,-0.002 -0.004,-0.005 -0.016,-0.005c-0.017,0 -0.047,0.004 -0.073,0.004c-0.024,0 -0.054,-0.004 -0.084,-0.004c-0.011,0 -0.016,0.003 -0.016,0.005Z" style="fill:#163e64;fill-rule:nonzero;"/>
            </g>
            <g transform="matrix(54,0,0,54,651.986479,249.5)">
                <path d="M0.041,-0.63c0,0.004 0.004,0.006 0.011,0.008c0.035,0.008 0.044,0.012 0.047,0.045c0.002,0.015 0.005,0.038 0.005,0.087c0,0.053 0.001,0.337 -0.001,0.394c-0.001,0.06 -0.006,0.076 -0.043,0.084c-0.017,0.004 -0.023,0.007 -0.023,0.01c0,0.005 0.006,0.007 0.015,0.007c0.018,0 0.048,-0.005 0.091,-0.005c0.024,-0 0.053,0.003 0.062,0.003c0.012,0 0.019,-0.001 0.019,-0.006c0,-0.004 -0.003,-0.007 -0.017,-0.01c-0.03,-0.008 -0.035,-0.013 -0.038,-0.051c-0.002,-0.028 -0.005,-0.115 -0.005,-0.262c0,-0.065 -0.001,-0.181 0.002,-0.234c0.002,-0.042 0.006,-0.055 0.045,-0.062c0.011,-0.001 0.015,-0.005 0.015,-0.009c0,-0.002 -0.007,-0.004 -0.014,-0.004c-0.022,0 -0.05,0.004 -0.078,0.004c-0.031,0 -0.05,-0.004 -0.078,-0.004c-0.01,0 -0.015,0.002 -0.015,0.005Z" style="fill:#163e64;fill-rule:nonzero;"/>
            </g>
            <g transform="matrix(54,0,0,54,668.776125,249.5)">
                <path d="M0.067,-0.645c-0.008,-0.004 -0.01,0 -0.012,0.006c-0.005,0.012 -0.018,0.059 -0.037,0.094c-0.005,0.008 -0.006,0.018 0,0.018c0.004,0 0.007,0 0.013,-0.009c0.012,-0.018 0.034,-0.043 0.046,-0.054c0.013,-0.01 0.021,-0.012 0.034,-0.013c0.03,-0.002 0.336,-0.003 0.356,-0.002c0.003,0 0.003,0.007 -0.001,0.013c-0.07,0.106 -0.328,0.47 -0.415,0.583c-0.007,0.008 -0.002,0.013 0.008,0.013c0.023,-0.001 0.067,-0.003 0.105,-0.003c0.046,0 0.35,-0.001 0.368,-0.001c0.016,-0 0.039,-0 0.04,-0.01c0.003,-0.026 0.018,-0.082 0.022,-0.092c0.002,-0.008 0.002,-0.016 -0.002,-0.016c-0.006,0 -0.01,0.006 -0.014,0.014c-0.012,0.02 -0.026,0.04 -0.036,0.05c-0.016,0.016 -0.029,0.019 -0.052,0.022c-0.039,0.005 -0.212,0.007 -0.339,0.007c-0.008,0 -0.006,-0.006 -0.004,-0.009c0.027,-0.045 0.292,-0.414 0.327,-0.469c0.036,-0.058 0.084,-0.11 0.09,-0.117c0.006,-0.007 0.003,-0.015 -0.003,-0.014c-0.012,0.002 -0.04,0.003 -0.087,0.003c-0.217,0 -0.348,-0.003 -0.367,-0.004c-0.02,-0.001 -0.032,-0.007 -0.04,-0.01Z" style="fill:#163e64;fill-rule:nonzero;"/>
            </g>
            <g transform="matrix(54,0,0,54,703.979772,249.5)">
                <path d="M0.333,-0.646c-0.004,0 -0.005,0.006 -0.006,0.01c-0.004,0.025 -0.022,0.043 -0.028,0.05c-0.001,0.001 -0.003,0.007 -0.003,0.011c0,0.009 -0.001,0.016 -0.006,0.029c-0.062,0.154 -0.152,0.377 -0.179,0.434c-0.039,0.085 -0.045,0.092 -0.091,0.101c-0.01,0.002 -0.02,0.004 -0.02,0.009c0,0.005 0.006,0.007 0.017,0.007c0.021,0 0.038,-0.005 0.063,-0.005c0.037,-0 0.08,0.005 0.099,0.005c0.01,0 0.019,-0.002 0.019,-0.007c0,-0.003 -0.005,-0.007 -0.015,-0.009c-0.019,-0.004 -0.033,-0.008 -0.041,-0.016c-0.011,-0.011 -0.012,-0.029 0,-0.07c0.016,-0.054 0.046,-0.13 0.055,-0.15c0.003,-0.007 0.011,-0.02 0.014,-0.02c0.022,-0.001 0.159,0 0.196,-0.003c0.003,0 0.009,0.006 0.012,0.012c0.037,0.097 0.073,0.189 0.073,0.201c0,0.019 -0.001,0.039 -0.046,0.045c-0.009,0.001 -0.019,0.005 -0.019,0.009c0,0.004 0.006,0.007 0.016,0.007c0.021,0 0.063,-0.004 0.09,-0.004c0.054,-0 0.065,0.003 0.081,0.003c0.009,0 0.018,-0.002 0.018,-0.007c0,-0.003 -0.006,-0.007 -0.017,-0.009c-0.026,-0.006 -0.035,-0.015 -0.061,-0.077c-0.067,-0.156 -0.109,-0.256 -0.186,-0.462c-0.014,-0.035 -0.024,-0.06 -0.028,-0.086c-0.002,-0.006 -0.004,-0.008 -0.007,-0.008Zm0.064,0.345c-0.012,0.004 -0.059,0.004 -0.093,0.004c-0.038,0 -0.064,0 -0.08,-0.001c-0.005,0 -0.004,-0.009 -0.003,-0.009c0.014,-0.042 0.054,-0.153 0.082,-0.221c0.003,-0.007 0.005,-0.01 0.008,-0.003c0.017,0.041 0.041,0.094 0.086,0.22c0.001,0.004 0.002,0.009 0,0.01Z" style="fill:#163e64;fill-rule:nonzero;"/>
            </g>
            <g transform="matrix(54,0,0,54,741.073418,249.5)">
                <path d="M0.16,-0.003c0,0.005 0.005,0.009 0.018,0.009c0.016,-0 0.046,-0.006 0.09,-0.006c0.036,-0 0.06,0.006 0.084,0.006c0.013,0 0.02,-0.001 0.02,-0.007c0,-0.005 -0.005,-0.007 -0.017,-0.01c-0.033,-0.01 -0.043,-0.016 -0.047,-0.053c-0.003,-0.031 -0.006,-0.167 -0.006,-0.224c0,-0.04 0.001,-0.267 0.001,-0.303c0,-0.006 0.001,-0.013 0.006,-0.014c0.017,-0.002 0.07,-0.002 0.097,-0.002c0.079,0 0.09,0.002 0.099,0.01c0.008,0.008 0.015,0.027 0.017,0.045c0.001,0.006 0.003,0.015 0.007,0.015c0.004,0 0.008,-0.008 0.008,-0.023c0,-0.036 0,-0.06 0.003,-0.072c0.001,-0.007 0.001,-0.009 0,-0.012c-0.001,-0.002 -0.004,-0.002 -0.008,0.001c-0.017,0.009 -0.036,0.01 -0.063,0.011c-0.029,0.001 -0.112,0.001 -0.188,0.001c-0.103,0 -0.198,-0.001 -0.215,-0.002c-0.013,-0.001 -0.029,-0.005 -0.033,-0.01c-0.002,-0.003 -0.006,-0.005 -0.008,-0.004c-0.004,0.002 -0.004,0.006 -0.004,0.015c0,0.025 -0.009,0.055 -0.014,0.084c-0.001,0.006 -0.001,0.015 0.003,0.015c0.003,0 0.009,-0.006 0.013,-0.016c0.014,-0.039 0.026,-0.051 0.044,-0.054c0.023,-0.003 0.048,-0.005 0.093,-0.005c0.046,0 0.069,0.002 0.075,0.003c0.003,0.001 0.006,0.004 0.007,0.013c0.002,0.015 0.002,0.416 -0.005,0.511c-0.003,0.046 -0.009,0.063 -0.056,0.069c-0.011,0.002 -0.021,0.005 -0.021,0.009Z" style="fill:#163e64;fill-rule:nonzero;"/>
            </g>
            <g transform="matrix(54,0,0,54,773.631065,249.5)">
                <path d="M0.041,-0.63c0,0.004 0.004,0.006 0.011,0.008c0.035,0.008 0.044,0.012 0.047,0.045c0.002,0.015 0.005,0.038 0.005,0.087c0,0.053 0.001,0.337 -0.001,0.394c-0.001,0.06 -0.006,0.076 -0.043,0.084c-0.017,0.004 -0.023,0.007 -0.023,0.01c0,0.005 0.006,0.007 0.015,0.007c0.018,0 0.048,-0.005 0.091,-0.005c0.024,-0 0.053,0.003 0.062,0.003c0.012,0 0.019,-0.001 0.019,-0.006c0,-0.004 -0.003,-0.007 -0.017,-0.01c-0.03,-0.008 -0.035,-0.013 -0.038,-0.051c-0.002,-0.028 -0.005,-0.115 -0.005,-0.262c0,-0.065 -0.001,-0.181 0.002,-0.234c0.002,-0.042 0.006,-0.055 0.045,-0.062c0.011,-0.001 0.015,-0.005 0.015,-0.009c0,-0.002 -0.007,-0.004 -0.014,-0.004c-0.022,0 -0.05,0.004 -0.078,0.004c-0.031,0 -0.05,-0.004 -0.078,-0.004c-0.01,0 -0.015,0.002 -0.015,0.005Z" style="fill:#163e64;fill-rule:nonzero;"/>
            </g>
            <g transform="matrix(54,0,0,54,790.420711,249.5)">
                <path d="M0.368,-0.649c-0.064,0 -0.142,0.024 -0.193,0.064c-0.096,0.073 -0.129,0.161 -0.129,0.261c-0,0.183 0.148,0.342 0.326,0.342c0.044,-0 0.089,-0.012 0.129,-0.03c0.077,-0.034 0.187,-0.134 0.187,-0.296c0,-0.186 -0.151,-0.341 -0.32,-0.341Zm-0.02,0.015c0.083,0 0.138,0.036 0.177,0.08c0.06,0.068 0.094,0.162 0.094,0.247c0,0.136 -0.066,0.229 -0.121,0.27c-0.034,0.025 -0.069,0.036 -0.108,0.036c-0.057,0 -0.133,-0.02 -0.201,-0.111c-0.043,-0.058 -0.073,-0.14 -0.073,-0.211c0,-0.078 0.019,-0.171 0.075,-0.236c0.034,-0.039 0.101,-0.075 0.157,-0.075Z" style="fill:#163e64;fill-rule:nonzero;"/>
            </g>
            <g transform="matrix(54,0,0,54,832.266358,249.5)">
                <path d="M0.021,-0.629c0,0.005 0.005,0.007 0.019,0.009c0.024,0.004 0.036,0.009 0.049,0.019c0.009,0.007 0.018,0.014 0.018,0.073c0,0.062 -0.008,0.402 -0.011,0.438c-0.005,0.058 -0.014,0.068 -0.053,0.079c-0.011,0.003 -0.019,0.005 -0.019,0.01c0,0.003 0.002,0.006 0.017,0.006c0.007,0 0.038,-0.005 0.069,-0.005c0.032,-0 0.059,0.005 0.076,0.005c0.01,0 0.019,-0.001 0.019,-0.006c0,-0.006 -0.007,-0.008 -0.018,-0.011c-0.014,-0.004 -0.041,-0.014 -0.049,-0.032c-0.008,-0.017 -0.011,-0.041 -0.011,-0.085c0,-0.043 0.003,-0.376 0.003,-0.416c0,-0.007 0.003,-0.008 0.008,-0.002c0.14,0.164 0.394,0.455 0.457,0.532c0.018,0.022 0.029,0.033 0.033,0.033c0.007,0 0.008,-0.009 0.007,-0.029c-0.002,-0.053 0,-0.108 0,-0.2c0,-0.094 0.002,-0.318 0.006,-0.348c0.004,-0.026 0.005,-0.047 0.044,-0.06c0.008,-0.003 0.017,-0.005 0.017,-0.01c0,-0.004 -0.006,-0.005 -0.016,-0.005c-0.011,0 -0.033,0.003 -0.063,0.003c-0.023,0 -0.049,-0.003 -0.067,-0.003c-0.011,0 -0.02,0.001 -0.02,0.006c0,0.004 0.007,0.006 0.019,0.009c0.031,0.008 0.051,0.017 0.051,0.077c0.001,0.091 0.005,0.386 0.005,0.426c0,0.011 -0.005,0.009 -0.006,0.008c-0.097,-0.108 -0.37,-0.417 -0.435,-0.501c-0.014,-0.018 -0.018,-0.022 -0.023,-0.022c-0.036,0 -0.083,-0.005 -0.104,-0.005c-0.017,0 -0.022,0.003 -0.022,0.007Z" style="fill:#163e64;fill-rule:nonzero;"/>
            </g>
        </g>
    </g>
    <g transform="matrix(4.166667,0,0,4.166667,-392.886625,-505.645833)">
        <g>
            <g transform="matrix(83,0,0,83,255.0804,184.5)">
                <path d="M0.341,-0.643c-0.128,0 -0.208,-0.003 -0.234,-0.006c-0.015,-0.001 -0.031,-0.016 -0.034,-0.019c-0.011,-0.009 -0.011,-0.016 -0.016,-0.016c-0.006,0 -0.015,0.01 -0.015,0.016c0,0.059 -0.019,0.114 -0.019,0.133c0,0.01 0.004,0.023 0.01,0.023c0.004,0 0.01,0.001 0.019,-0.02c0.017,-0.033 0.029,-0.049 0.033,-0.052c0.015,-0.017 0.036,-0.023 0.074,-0.023c0.016,0 0.104,0.002 0.124,0.005c0.003,0 0.008,0.005 0.008,0.013l0,0.119c0,0.077 -0.005,0.281 -0.007,0.34c-0.003,0.075 -0.005,0.092 -0.075,0.108c-0.009,0.002 -0.019,0.01 -0.019,0.017c0,0.006 0.01,0.012 0.03,0.012c0.013,0 0.064,-0.007 0.114,-0.007c0.044,-0 0.106,0.005 0.114,0.005c0.01,0 0.028,-0.001 0.028,-0.012c0,-0.007 -0.014,-0.015 -0.027,-0.018c-0.062,-0.014 -0.067,-0.026 -0.072,-0.071c-0.004,-0.037 -0.004,-0.132 -0.004,-0.248l0,-0.245c0,-0.002 0.004,-0.012 0.009,-0.013c0.012,-0.003 0.123,-0.003 0.14,-0.002c0.062,0.003 0.075,0.008 0.081,0.06c0.003,0.025 0.007,0.032 0.014,0.032c0.008,0 0.016,-0.01 0.017,-0.019c0.006,-0.052 0.012,-0.084 0.022,-0.115c0.005,-0.014 0.001,-0.023 -0.004,-0.023c-0.004,0 -0.007,0.002 -0.014,0.006c-0.014,0.01 -0.032,0.016 -0.068,0.018c-0.041,0.001 -0.177,0.002 -0.229,0.002Z" style="fill:#163e64;fill-rule:nonzero;"/>
            </g>
            <g transform="matrix(83,0,0,83,310.4414,184.5)">
                <path d="M0.353,-0.661c-0.005,0 -0.009,0.005 -0.016,0.013c-0.007,0.011 -0.018,0.03 -0.024,0.04c-0.004,0.008 -0.006,0.014 -0.007,0.017c-0.002,0.006 -0.003,0.012 -0.009,0.026c-0.042,0.102 -0.156,0.404 -0.179,0.455c-0.029,0.065 -0.042,0.068 -0.092,0.085c-0.015,0.005 -0.022,0.014 -0.022,0.02c0,0.006 0.005,0.01 0.023,0.01c0.015,-0 0.067,-0.005 0.104,-0.005c0.037,-0 0.062,0.003 0.079,0.003c0.013,0 0.028,-0.003 0.028,-0.013c0,-0.007 -0.01,-0.013 -0.027,-0.018c-0.045,-0.014 -0.049,-0.031 -0.049,-0.043c0,-0.025 0.026,-0.11 0.052,-0.175c0.002,-0.003 0.007,-0.008 0.011,-0.008c0.021,-0.003 0.109,-0.004 0.164,-0.004c0.029,0 0.033,0.006 0.034,0.01c0.023,0.064 0.048,0.13 0.056,0.171c0.004,0.021 0.008,0.041 -0.04,0.051c-0.018,0.003 -0.024,0.011 -0.024,0.016c0,0.005 0.006,0.012 0.031,0.012c0.025,0 0.039,-0.002 0.071,-0.002c0.044,-0 0.093,0.005 0.126,0.005c0.025,0 0.032,-0.006 0.032,-0.013c0,-0.007 -0.008,-0.012 -0.024,-0.017c-0.045,-0.011 -0.061,-0.019 -0.094,-0.101c-0.017,-0.041 -0.092,-0.239 -0.144,-0.385c-0.019,-0.052 -0.036,-0.097 -0.044,-0.124c-0.008,-0.022 -0.012,-0.026 -0.016,-0.026Zm0.045,0.358c-0.033,0.003 -0.116,0.002 -0.156,0.003c-0.004,0 -0.006,-0.003 -0.005,-0.007c0.008,-0.031 0.06,-0.171 0.078,-0.219c0.003,-0.007 0.005,-0.006 0.008,0c0.009,0.014 0.061,0.164 0.078,0.215c0.001,0.003 -0.002,0.008 -0.003,0.008Z" style="fill:#163e64;fill-rule:nonzero;"/>
            </g>
            <g transform="matrix(83,0,0,83,366.5494,184.5)">
                <path d="M0.037,-0.634c0,0.009 0.011,0.014 0.023,0.017c0.038,0.008 0.052,0.024 0.054,0.043c0.001,0.013 0.004,0.093 0.004,0.237c0,0.168 0.024,0.241 0.08,0.294c0.024,0.022 0.091,0.059 0.181,0.059c0.044,0 0.098,-0.006 0.144,-0.032c0.072,-0.04 0.12,-0.128 0.125,-0.302c0.002,-0.052 0.008,-0.163 0.009,-0.206c0.002,-0.063 0.022,-0.08 0.065,-0.092c0.014,-0.005 0.022,-0.012 0.022,-0.018c0,-0.008 -0.009,-0.011 -0.025,-0.011c-0.028,0 -0.049,0.002 -0.09,0.002c-0.032,0 -0.06,-0.003 -0.085,-0.003c-0.017,0 -0.023,0.004 -0.023,0.01c0,0.007 0.011,0.016 0.021,0.018c0.056,0.013 0.063,0.027 0.066,0.065c0.001,0.012 0.004,0.064 0.004,0.129c0,0.114 -0.01,0.198 -0.022,0.251c-0.025,0.11 -0.122,0.14 -0.187,0.14c-0.052,0 -0.117,-0.024 -0.145,-0.055c-0.031,-0.035 -0.056,-0.078 -0.056,-0.191c0,-0.142 -0.001,-0.246 0.004,-0.279c0.006,-0.04 0.025,-0.05 0.061,-0.057c0.019,-0.004 0.03,-0.011 0.03,-0.019c0,-0.008 -0.012,-0.011 -0.031,-0.011c-0.022,0 -0.06,0.002 -0.097,0.002c-0.037,0 -0.061,-0.003 -0.103,-0.003c-0.016,0 -0.029,0.004 -0.029,0.012Z" style="fill:#163e64;fill-rule:nonzero;"/>
            </g>
            <g transform="matrix(83,0,0,83,429.7954,184.5)">
                <path d="M0.046,-0.633c0,0.007 0.008,0.015 0.028,0.019c0.047,0.009 0.052,0.028 0.053,0.05c0.001,0.033 0.001,0.102 0.001,0.142c0,0.145 -0.003,0.304 -0.005,0.329c-0.005,0.039 -0.019,0.058 -0.074,0.069c-0.016,0.003 -0.024,0.011 -0.024,0.018c0,0.009 0.01,0.011 0.029,0.011c0.014,-0 0.061,-0.005 0.129,-0.005c0.203,-0 0.294,0.006 0.306,0.006c0.004,0 0.023,-0.006 0.024,-0.017c0.008,-0.038 0.015,-0.059 0.031,-0.108c0.004,-0.016 0.001,-0.027 -0.004,-0.027c-0.005,0 -0.014,0.004 -0.025,0.022c-0.027,0.038 -0.043,0.053 -0.057,0.067c-0.02,0.018 -0.032,0.018 -0.04,0.019c-0.015,0.002 -0.043,0.003 -0.071,0.003c-0.033,0 -0.07,-0.001 -0.096,-0.005c-0.008,-0.001 -0.032,-0.024 -0.034,-0.038c-0.004,-0.033 -0.007,-0.129 -0.007,-0.207c0,-0.148 0,-0.249 0.006,-0.294c0.002,-0.015 0.009,-0.026 0.067,-0.039c0.015,-0.004 0.023,-0.01 0.023,-0.017c0,-0.007 -0.007,-0.011 -0.025,-0.011c-0.024,0 -0.092,0.003 -0.131,0.003c-0.029,0 -0.047,-0.002 -0.074,-0.002c-0.022,0 -0.03,0.005 -0.03,0.012Z" style="fill:#163e64;fill-rule:nonzero;"/>
            </g>
            <g transform="matrix(83,0,0,83,476.4414,184.5)">
                <path d="M0.128,-0.326c0,0.085 -0.002,0.189 -0.005,0.224c-0.004,0.047 -0.008,0.062 -0.058,0.073c-0.02,0.004 -0.03,0.01 -0.03,0.017c0,0.007 0.007,0.014 0.026,0.014c0.037,0 0.046,-0.002 0.076,-0.002c0.027,-0 0.098,0.006 0.149,0.006c0.012,0 0.027,-0.005 0.027,-0.013c0,-0.007 -0.008,-0.014 -0.026,-0.017c-0.065,-0.013 -0.07,-0.032 -0.073,-0.086c-0.002,-0.032 -0.003,-0.094 -0.003,-0.149c0,-0.196 0.001,-0.261 0.006,-0.294c0.004,-0.027 0.003,-0.052 0.061,-0.064c0.016,-0.003 0.026,-0.009 0.026,-0.017c0,-0.008 -0.009,-0.012 -0.025,-0.012c-0.035,0 -0.058,0.003 -0.107,0.003c-0.033,0 -0.083,-0.003 -0.109,-0.003c-0.014,0 -0.025,0.004 -0.025,0.012c0,0.007 0.006,0.014 0.028,0.018c0.056,0.01 0.056,0.025 0.059,0.071c0.002,0.033 0.003,0.157 0.003,0.219Z" style="fill:#163e64;fill-rule:nonzero;"/>
            </g>
            <g transform="matrix(83,0,0,83,504.5784,184.5)">
                <path d="M0.5,-0.495c0,-0.045 -0.022,-0.096 -0.071,-0.126c-0.03,-0.019 -0.082,-0.029 -0.141,-0.029c-0.041,0 -0.127,0.007 -0.159,0.007l-0.067,0c-0.014,0 -0.027,0.005 -0.027,0.013c0,0.008 0.013,0.014 0.026,0.016c0.055,0.007 0.058,0.018 0.063,0.04c0.003,0.015 0.006,0.072 0.006,0.158c0,0.199 -0.005,0.307 -0.008,0.328c-0.004,0.035 -0.004,0.048 -0.075,0.061c-0.011,0.002 -0.025,0.008 -0.025,0.016c0,0.009 0.014,0.013 0.029,0.013c0.017,0 0.041,-0.001 0.064,-0.001c0.046,0 0.142,0.004 0.17,0.004c0.05,0 0.131,-0.012 0.179,-0.046c0.048,-0.032 0.08,-0.078 0.08,-0.149c0,-0.097 -0.074,-0.143 -0.123,-0.165c-0.003,-0.001 -0.005,-0.007 -0.002,-0.008c0.035,-0.019 0.081,-0.054 0.081,-0.132Zm-0.084,0.007c0,0.042 -0.023,0.082 -0.055,0.103c-0.025,0.016 -0.097,0.025 -0.141,0.025c-0.009,0 -0.011,-0.008 -0.011,-0.013c0,-0.161 0.004,-0.206 0.006,-0.222c0.001,-0.004 0.01,-0.015 0.012,-0.016c0.011,-0.004 0.037,-0.008 0.043,-0.008c0.093,0 0.146,0.05 0.146,0.131Zm0.034,0.308c0,0.096 -0.068,0.155 -0.152,0.155c-0.013,-0 -0.047,-0.011 -0.068,-0.034c-0.01,-0.009 -0.015,-0.026 -0.016,-0.033c-0.005,-0.035 -0.007,-0.165 -0.004,-0.201c0.002,-0.022 0.005,-0.026 0.007,-0.029c0.002,-0.002 0.021,-0.007 0.044,-0.007c0.037,0 0.079,0.005 0.106,0.019c0.048,0.024 0.083,0.07 0.083,0.13Z" style="fill:#163e64;fill-rule:nonzero;"/>
            </g>
        </g>
    </g>
    <path d="M684.197,340.188l2544.362,0" style="fill:none;fill-rule:nonzero;stroke:#156082;stroke-width:3.13px;"/>
</svg>
