<?xml version="1.0" encoding="UTF-8" standalone="no"?>
<!DOCTYPE svg PUBLIC "-//W3C//DTD SVG 1.1//EN" "http://www.w3.org/Graphics/SVG/1.1/DTD/svg11.dtd">
<svg width="100%" height="100%" viewBox="0 0 2111 1057" version="1.1" xmlns="http://www.w3.org/2000/svg" xmlns:xlink="http://www.w3.org/1999/xlink" xml:space="preserve" xmlns:serif="http://www.serif.com/" style="fill-rule:evenodd;clip-rule:evenodd;stroke-miterlimit:8;">
    <g>
        <path d="M-0,35.088c0,-19.379 15.71,-35.088 35.088,-35.088l2040.24,0c19.379,0 35.088,15.71 35.088,35.088l0,986.073c0,19.379 -15.71,35.088 -35.088,35.088l-2040.24,0c-19.379,0 -35.088,-15.71 -35.088,-35.088l0,-986.073Z" style="fill:none;"/>
        <g transform="matrix(4.166667,0,0,4.166667,-1.041667,-80.208333)">
            <g>
                <g transform="matrix(72,0,0,72,252.7495,151.5)">
                    <path d="M0.506,-0.481c0,-0.048 -0.024,-0.098 -0.057,-0.125c-0.04,-0.033 -0.094,-0.042 -0.163,-0.042c-0.054,0 -0.125,0.005 -0.162,0.005l-0.056,0c-0.022,0 -0.027,0.005 -0.027,0.012c0,0.008 0.009,0.013 0.024,0.017c0.045,0.011 0.054,0.013 0.058,0.05c0.004,0.039 0.006,0.13 0.006,0.284c0,0.06 -0.004,0.166 -0.006,0.197c-0.003,0.038 -0.021,0.044 -0.065,0.058c-0.013,0.005 -0.022,0.007 -0.022,0.015c0,0.01 0.013,0.014 0.026,0.014c0.011,0 0.063,-0.004 0.081,-0.004c0.068,-0 0.087,0.006 0.129,0.006c0.005,0 0.024,-0.003 0.024,-0.013c0,-0.005 -0.007,-0.012 -0.024,-0.017c-0.047,-0.011 -0.058,-0.025 -0.06,-0.067c-0.003,-0.058 -0.005,-0.185 -0.004,-0.202c0,-0.003 0.005,-0.012 0.012,-0.012c0.03,0 0.067,0.009 0.071,0.013c0.006,0.004 0.026,0.029 0.04,0.05c0.04,0.063 0.091,0.14 0.126,0.188c0.029,0.037 0.086,0.065 0.133,0.065c0.021,0 0.043,-0.002 0.055,-0.007c0.006,-0.003 0.014,-0.007 0.014,-0.013c0,-0.004 -0.008,-0.012 -0.016,-0.014c-0.044,-0.009 -0.071,-0.027 -0.098,-0.059c-0.061,-0.068 -0.145,-0.203 -0.155,-0.227c-0.002,-0.004 0.001,-0.013 0.004,-0.015c0.007,-0.005 0.026,-0.014 0.031,-0.017c0.049,-0.03 0.081,-0.086 0.081,-0.14Zm-0.089,0.002c0,0.063 -0.039,0.107 -0.066,0.124c-0.014,0.009 -0.067,0.026 -0.125,0.026c-0.006,0 -0.014,-0.007 -0.016,-0.015c-0.003,-0.017 0,-0.21 0.003,-0.245c0,-0.004 0.007,-0.019 0.012,-0.021c0.011,-0.005 0.043,-0.007 0.048,-0.007c0.032,0 0.075,0.015 0.099,0.038c0.029,0.029 0.045,0.076 0.045,0.1Z" style="fill:rgb(22,62,100);fill-rule:nonzero;"/>
                </g>
                <g transform="matrix(72,0,0,72,298.1887,151.5)">
                    <path d="M0.212,-0.367c-0.001,-0.017 0,-0.149 0.003,-0.182c0.003,-0.042 0.006,-0.057 0.053,-0.066c0.021,-0.004 0.029,-0.009 0.029,-0.019c0,-0.006 -0.011,-0.011 -0.032,-0.011c-0.023,0 -0.053,0.002 -0.095,0.002c-0.026,0 -0.063,-0.002 -0.091,-0.002c-0.016,0 -0.029,0.004 -0.029,0.011c0,0.008 0.007,0.015 0.028,0.019c0.042,0.009 0.048,0.023 0.05,0.057c0.002,0.044 0,0.136 0,0.154c0,0.163 -0.006,0.276 -0.009,0.317c-0.004,0.039 -0.012,0.049 -0.063,0.062c-0.011,0.003 -0.023,0.009 -0.023,0.019c0,0.006 0.008,0.01 0.03,0.01c0.034,0 0.076,-0.004 0.099,-0.004c0.036,-0 0.097,0.004 0.104,0.004c0.013,0 0.03,-0.002 0.029,-0.01c-0.001,-0.01 -0.008,-0.014 -0.03,-0.02c-0.042,-0.013 -0.053,-0.031 -0.054,-0.078c0,-0.029 -0.002,-0.157 0,-0.183c0,-0.008 0.008,-0.017 0.011,-0.017c0.02,-0.002 0.217,0.001 0.372,0.001c0.008,0 0.012,0.003 0.012,0.021c0,0.05 -0.002,0.119 -0.004,0.161c-0.003,0.071 -0.008,0.082 -0.062,0.098c-0.011,0.003 -0.022,0.009 -0.022,0.018c0,0.009 0.01,0.011 0.025,0.011c0.02,0 0.095,-0.006 0.117,-0.006c0.031,-0 0.067,0.003 0.083,0.003c0.019,0 0.028,-0.003 0.028,-0.011c0,-0.007 -0.009,-0.014 -0.023,-0.019c-0.045,-0.013 -0.055,-0.017 -0.057,-0.056c0,-0.015 -0.004,-0.104 -0.004,-0.148c0,-0.17 0.003,-0.278 0.008,-0.329c0.002,-0.029 0.01,-0.047 0.052,-0.057c0.021,-0.005 0.029,-0.012 0.029,-0.018c0,-0.008 -0.012,-0.011 -0.028,-0.011c-0.011,0 -0.057,0.003 -0.091,0.003c-0.025,0 -0.089,-0.002 -0.102,-0.002c-0.021,0 -0.031,0.004 -0.031,0.011c0,0.009 0.011,0.015 0.025,0.019c0.045,0.012 0.052,0.02 0.055,0.057c0.003,0.039 0.003,0.169 0.002,0.182c-0.002,0.02 -0.005,0.026 -0.011,0.026c-0.177,0 -0.313,0.003 -0.372,0.003c-0.007,0 -0.01,-0.001 -0.011,-0.02Z" style="fill:rgb(22,62,100);fill-rule:nonzero;"/>
                </g>
                <g transform="matrix(72,0,0,72,356.8759,151.5)">
                    <path d="M0.223,-0.643c-0.067,0 -0.106,-0.004 -0.153,-0.004c-0.014,0 -0.028,0.005 -0.028,0.014c0,0.008 0.008,0.012 0.029,0.017c0.044,0.01 0.054,0.022 0.056,0.066c0.002,0.029 0.001,0.05 0.001,0.169c0,0.124 -0.005,0.242 -0.008,0.284c-0.004,0.054 -0.023,0.061 -0.073,0.073c-0.016,0.004 -0.028,0.009 -0.028,0.016c0,0.011 0.011,0.013 0.03,0.013c0.038,-0 0.06,-0.005 0.113,-0.005c0.163,-0 0.314,0.008 0.325,0.008c0.005,0 0.014,-0.008 0.017,-0.012c0.007,-0.009 0.035,-0.099 0.036,-0.107c0.002,-0.011 -0.001,-0.027 -0.008,-0.027c-0.006,0 -0.012,0.006 -0.023,0.028c-0.024,0.047 -0.051,0.066 -0.083,0.074c-0.022,0.006 -0.083,0.007 -0.095,0.007c-0.04,0 -0.074,-0.004 -0.091,-0.007c-0.007,-0.002 -0.015,-0.01 -0.019,-0.022c-0.006,-0.016 -0.01,-0.054 -0.01,-0.083c0,-0.043 -0.001,-0.136 0.003,-0.157c0,-0.002 0.005,-0.009 0.009,-0.009c0.027,0 0.067,0 0.099,0.002c0.061,0.003 0.065,0.006 0.079,0.052c0.003,0.011 0.01,0.022 0.017,0.022c0.007,0 0.012,-0.011 0.011,-0.029c-0.001,-0.02 -0.003,-0.034 -0.003,-0.061c0,-0.024 0.001,-0.044 0.003,-0.072c0.001,-0.008 -0.001,-0.022 -0.008,-0.022c-0.006,0 -0.012,0.006 -0.018,0.021c-0.018,0.046 -0.022,0.05 -0.116,0.05l-0.065,0c-0.005,0 -0.006,-0.006 -0.007,-0.01c-0.002,-0.015 0.001,-0.203 0.003,-0.228c0.002,-0.023 0.013,-0.028 0.015,-0.028c0.044,-0.002 0.116,0 0.142,0.004c0.032,0.005 0.054,0.015 0.067,0.068c0.002,0.01 0.007,0.024 0.016,0.024c0.009,0 0.015,-0.012 0.015,-0.026c0,-0.02 -0.002,-0.049 -0.002,-0.095c-0.001,-0.005 -0.006,-0.012 -0.009,-0.011c-0.015,0.002 -0.059,0.003 -0.092,0.003l-0.147,0Z" style="fill:rgb(22,62,100);fill-rule:nonzero;"/>
                </g>
                <g transform="matrix(72,0,0,72,397.3759,151.5)">
                    <path d="M0.128,-0.326c0,0.085 -0.002,0.189 -0.005,0.224c-0.004,0.047 -0.008,0.062 -0.058,0.073c-0.02,0.004 -0.03,0.01 -0.03,0.017c0,0.007 0.007,0.014 0.026,0.014c0.037,0 0.046,-0.002 0.076,-0.002c0.027,-0 0.098,0.006 0.149,0.006c0.012,0 0.027,-0.005 0.027,-0.013c0,-0.007 -0.008,-0.014 -0.026,-0.017c-0.065,-0.013 -0.07,-0.032 -0.073,-0.086c-0.002,-0.032 -0.003,-0.094 -0.003,-0.149c0,-0.196 0.001,-0.261 0.006,-0.294c0.004,-0.027 0.003,-0.052 0.061,-0.064c0.016,-0.003 0.026,-0.009 0.026,-0.017c0,-0.008 -0.009,-0.012 -0.025,-0.012c-0.035,0 -0.058,0.003 -0.107,0.003c-0.033,0 -0.083,-0.003 -0.109,-0.003c-0.014,0 -0.025,0.004 -0.025,0.012c0,0.007 0.006,0.014 0.028,0.018c0.056,0.01 0.056,0.025 0.059,0.071c0.002,0.033 0.003,0.157 0.003,0.219Z" style="fill:rgb(22,62,100);fill-rule:nonzero;"/>
                </g>
            </g>
        </g>
        <g transform="matrix(4.166667,0,0,4.166667,-1.041667,-80.208333)">
            <g>
                <g transform="matrix(48,0,0,48,252.7498,209.5)">
                    <path d="M0.236,-0.636c-0.033,0 -0.07,0.005 -0.107,0.005c-0.036,0 -0.06,-0.004 -0.074,-0.004c-0.013,0 -0.018,0.003 -0.018,0.006c0,0.005 0.008,0.007 0.017,0.009c0.042,0.007 0.044,0.021 0.046,0.05c0.002,0.032 0.006,0.085 0.006,0.225c0,0.145 -0.002,0.22 -0.005,0.277c-0.003,0.042 -0.014,0.051 -0.045,0.057c-0.013,0.003 -0.02,0.005 -0.02,0.009c0,0.005 0.007,0.007 0.017,0.007c0.019,0 0.048,-0.005 0.085,-0.005c0.034,-0 0.053,0.005 0.074,0.005c0.012,0 0.02,-0.003 0.02,-0.007c0,-0.004 -0.004,-0.006 -0.015,-0.008c-0.036,-0.006 -0.043,-0.016 -0.047,-0.028c-0.003,-0.009 -0.007,-0.045 -0.008,-0.091c-0.001,-0.04 0,-0.168 0.002,-0.178c0.001,-0.004 0.005,-0.008 0.01,-0.008c0.026,-0.001 0.04,0.001 0.05,0.004c0.012,0.003 0.021,0.012 0.031,0.023c0.014,0.017 0.098,0.155 0.149,0.22c0.037,0.046 0.077,0.079 0.138,0.079c0.014,0 0.03,-0.001 0.038,-0.004c0.008,-0.003 0.012,-0.006 0.012,-0.008c0,-0.003 -0.005,-0.006 -0.013,-0.006c-0.018,0 -0.047,-0.009 -0.079,-0.041c-0.021,-0.021 -0.042,-0.046 -0.073,-0.088c-0.028,-0.038 -0.093,-0.14 -0.113,-0.179c-0.004,-0.01 -0.006,-0.017 -0.002,-0.019c0.016,-0.006 0.044,-0.018 0.061,-0.033c0.023,-0.018 0.057,-0.047 0.057,-0.114c0,-0.044 -0.019,-0.089 -0.062,-0.12c-0.033,-0.024 -0.072,-0.035 -0.132,-0.035Zm-0.034,0.015c0.06,0 0.096,0.015 0.123,0.04c0.026,0.024 0.042,0.062 0.042,0.115c0,0.054 -0.032,0.095 -0.06,0.115c-0.02,0.013 -0.082,0.021 -0.111,0.021c-0.008,0 -0.021,0 -0.027,-0.001c-0.003,0 -0.007,-0.003 -0.007,-0.018c0,-0.016 0,-0.228 0.001,-0.248c0.001,-0.016 0.004,-0.016 0.006,-0.017c0.005,-0.003 0.02,-0.007 0.033,-0.007Z" style="fill:rgb(22,62,100);fill-rule:nonzero;"/>
                </g>
                <g transform="matrix(48,0,0,48,281.337914,209.5)">
                    <path d="M0.045,-0.629c0,0.004 0.004,0.007 0.014,0.009c0.036,0.008 0.047,0.02 0.047,0.079c0,0.208 -0.001,0.305 -0.005,0.467c-0.001,0.044 -0.02,0.058 -0.056,0.064c-0.011,0.002 -0.018,0.004 -0.018,0.008c0,0.004 0.006,0.007 0.018,0.007c0.011,0 0.063,-0.005 0.096,-0.005c0.082,-0 0.196,0.004 0.302,0.004c0.006,0 0.01,-0.005 0.013,-0.011c0.006,-0.012 0.014,-0.047 0.022,-0.074c0.004,-0.012 0.003,-0.018 -0.001,-0.018c-0.004,0 -0.008,0.004 -0.018,0.018c-0.01,0.014 -0.026,0.038 -0.035,0.046c-0.018,0.016 -0.031,0.019 -0.127,0.019c-0.072,0 -0.086,-0.002 -0.103,-0.011c-0.02,-0.01 -0.027,-0.035 -0.027,-0.046c0,-0.019 -0.003,-0.156 -0.003,-0.206c0,-0.022 0,-0.023 0.009,-0.023c0.144,0 0.174,0.001 0.195,0.007c0.014,0.005 0.021,0.021 0.024,0.03c0.007,0.017 0.008,0.022 0.012,0.022c0.002,0 0.009,-0.006 0.006,-0.021c-0.001,-0.006 -0.004,-0.034 -0.002,-0.054c0.002,-0.018 0.006,-0.044 0.006,-0.05c0,-0.007 -0.002,-0.011 -0.005,-0.011c-0.003,0 -0.006,0.003 -0.01,0.011c-0.01,0.02 -0.019,0.032 -0.026,0.035c-0.008,0.005 -0.016,0.007 -0.067,0.007l-0.136,0c-0.003,0 -0.006,-0.003 -0.006,-0.018l0,-0.233c0,-0.034 0.004,-0.036 0.012,-0.037c0.022,-0.002 0.173,-0.002 0.2,0.003c0.018,0.003 0.033,0.013 0.052,0.058c0.005,0.011 0.007,0.014 0.01,0.014c0.004,0 0.005,-0.009 0.004,-0.015c-0.005,-0.023 -0.006,-0.052 -0.007,-0.064c-0.002,-0.012 -0.005,-0.017 -0.009,-0.017c-0.011,0 -0.023,0.002 -0.06,0.002c-0.04,0 -0.185,0.002 -0.23,0.002c-0.032,0 -0.054,-0.003 -0.077,-0.003c-0.008,0 -0.014,0.003 -0.014,0.005Z" style="fill:rgb(22,62,100);fill-rule:nonzero;"/>
                </g>
                <g transform="matrix(48,0,0,48,307.814029,209.5)">
                    <path d="M0.257,-0.649c-0.055,0 -0.1,0.019 -0.126,0.04c-0.04,0.031 -0.063,0.071 -0.063,0.129c0,0.084 0.065,0.139 0.133,0.185c0.074,0.05 0.125,0.086 0.125,0.16c0,0.066 -0.053,0.136 -0.136,0.136c-0.064,-0 -0.128,-0.031 -0.146,-0.107c-0.004,-0.014 -0.007,-0.019 -0.011,-0.019c-0.005,0 -0.006,0.009 -0.005,0.017c0.001,0.025 0.007,0.051 0.009,0.068c0.003,0.017 0.006,0.023 0.019,0.03c0.031,0.017 0.092,0.028 0.132,0.028c0.101,0 0.204,-0.067 0.204,-0.176c0,-0.082 -0.054,-0.127 -0.09,-0.153c-0.031,-0.023 -0.063,-0.047 -0.104,-0.074c-0.034,-0.023 -0.075,-0.06 -0.075,-0.12c0,-0.085 0.072,-0.129 0.118,-0.129c0.026,0 0.059,0.007 0.082,0.024c0.019,0.012 0.03,0.033 0.036,0.059c0.002,0.011 0.005,0.015 0.009,0.015c0.003,0 0.007,-0.006 0.005,-0.02c-0.001,-0.01 -0.004,-0.038 -0.004,-0.065c0,-0.003 -0.002,-0.009 -0.007,-0.011c-0.015,-0.004 -0.063,-0.017 -0.105,-0.017Z" style="fill:rgb(22,62,100);fill-rule:nonzero;"/>
                </g>
                <g transform="matrix(48,0,0,48,330.642143,209.5)">
                    <path d="M0.045,-0.629c0,0.004 0.004,0.007 0.014,0.009c0.036,0.008 0.047,0.02 0.047,0.079c0,0.208 -0.001,0.305 -0.005,0.467c-0.001,0.044 -0.02,0.058 -0.056,0.064c-0.011,0.002 -0.018,0.004 -0.018,0.008c0,0.004 0.006,0.007 0.018,0.007c0.011,0 0.063,-0.005 0.096,-0.005c0.082,-0 0.196,0.004 0.302,0.004c0.006,0 0.01,-0.005 0.013,-0.011c0.006,-0.012 0.014,-0.047 0.022,-0.074c0.004,-0.012 0.003,-0.018 -0.001,-0.018c-0.004,0 -0.008,0.004 -0.018,0.018c-0.01,0.014 -0.026,0.038 -0.035,0.046c-0.018,0.016 -0.031,0.019 -0.127,0.019c-0.072,0 -0.086,-0.002 -0.103,-0.011c-0.02,-0.01 -0.027,-0.035 -0.027,-0.046c0,-0.019 -0.003,-0.156 -0.003,-0.206c0,-0.022 0,-0.023 0.009,-0.023c0.144,0 0.174,0.001 0.195,0.007c0.014,0.005 0.021,0.021 0.024,0.03c0.007,0.017 0.008,0.022 0.012,0.022c0.002,0 0.009,-0.006 0.006,-0.021c-0.001,-0.006 -0.004,-0.034 -0.002,-0.054c0.002,-0.018 0.006,-0.044 0.006,-0.05c0,-0.007 -0.002,-0.011 -0.005,-0.011c-0.003,0 -0.006,0.003 -0.01,0.011c-0.01,0.02 -0.019,0.032 -0.026,0.035c-0.008,0.005 -0.016,0.007 -0.067,0.007l-0.136,0c-0.003,0 -0.006,-0.003 -0.006,-0.018l0,-0.233c0,-0.034 0.004,-0.036 0.012,-0.037c0.022,-0.002 0.173,-0.002 0.2,0.003c0.018,0.003 0.033,0.013 0.052,0.058c0.005,0.011 0.007,0.014 0.01,0.014c0.004,0 0.005,-0.009 0.004,-0.015c-0.005,-0.023 -0.006,-0.052 -0.007,-0.064c-0.002,-0.012 -0.005,-0.017 -0.009,-0.017c-0.011,0 -0.023,0.002 -0.06,0.002c-0.04,0 -0.185,0.002 -0.23,0.002c-0.032,0 -0.054,-0.003 -0.077,-0.003c-0.008,0 -0.014,0.003 -0.014,0.005Z" style="fill:rgb(22,62,100);fill-rule:nonzero;"/>
                </g>
                <g transform="matrix(48,0,0,48,357.118257,209.5)">
                    <path d="M0.333,-0.646c-0.004,0 -0.005,0.006 -0.006,0.01c-0.004,0.025 -0.022,0.043 -0.028,0.05c-0.001,0.001 -0.003,0.007 -0.003,0.011c0,0.009 -0.001,0.016 -0.006,0.029c-0.062,0.154 -0.152,0.377 -0.179,0.434c-0.039,0.085 -0.045,0.092 -0.091,0.101c-0.01,0.002 -0.02,0.004 -0.02,0.009c0,0.005 0.006,0.007 0.017,0.007c0.021,0 0.038,-0.005 0.063,-0.005c0.037,-0 0.08,0.005 0.099,0.005c0.01,0 0.019,-0.002 0.019,-0.007c0,-0.003 -0.005,-0.007 -0.015,-0.009c-0.019,-0.004 -0.033,-0.008 -0.041,-0.016c-0.011,-0.011 -0.012,-0.029 0,-0.07c0.016,-0.054 0.046,-0.13 0.055,-0.15c0.003,-0.007 0.011,-0.02 0.014,-0.02c0.022,-0.001 0.159,0 0.196,-0.003c0.003,0 0.009,0.006 0.012,0.012c0.037,0.097 0.073,0.189 0.073,0.201c0,0.019 -0.001,0.039 -0.046,0.045c-0.009,0.001 -0.019,0.005 -0.019,0.009c0,0.004 0.006,0.007 0.016,0.007c0.021,0 0.063,-0.004 0.09,-0.004c0.054,-0 0.065,0.003 0.081,0.003c0.009,0 0.018,-0.002 0.018,-0.007c0,-0.003 -0.006,-0.007 -0.017,-0.009c-0.026,-0.006 -0.035,-0.015 -0.061,-0.077c-0.067,-0.156 -0.109,-0.256 -0.186,-0.462c-0.014,-0.035 -0.024,-0.06 -0.028,-0.086c-0.002,-0.006 -0.004,-0.008 -0.007,-0.008Zm0.064,0.345c-0.012,0.004 -0.059,0.004 -0.093,0.004c-0.038,0 -0.064,0 -0.08,-0.001c-0.005,0 -0.004,-0.009 -0.003,-0.009c0.014,-0.042 0.054,-0.153 0.082,-0.221c0.003,-0.007 0.005,-0.01 0.008,-0.003c0.017,0.041 0.041,0.094 0.086,0.22c0.001,0.004 0.002,0.009 0,0.01Z" style="fill:rgb(22,62,100);fill-rule:nonzero;"/>
                </g>
                <g transform="matrix(48,0,0,48,390.314371,209.5)">
                    <path d="M0.236,-0.636c-0.033,0 -0.07,0.005 -0.107,0.005c-0.036,0 -0.06,-0.004 -0.074,-0.004c-0.013,0 -0.018,0.003 -0.018,0.006c0,0.005 0.008,0.007 0.017,0.009c0.042,0.007 0.044,0.021 0.046,0.05c0.002,0.032 0.006,0.085 0.006,0.225c0,0.145 -0.002,0.22 -0.005,0.277c-0.003,0.042 -0.014,0.051 -0.045,0.057c-0.013,0.003 -0.02,0.005 -0.02,0.009c0,0.005 0.007,0.007 0.017,0.007c0.019,0 0.048,-0.005 0.085,-0.005c0.034,-0 0.053,0.005 0.074,0.005c0.012,0 0.02,-0.003 0.02,-0.007c0,-0.004 -0.004,-0.006 -0.015,-0.008c-0.036,-0.006 -0.043,-0.016 -0.047,-0.028c-0.003,-0.009 -0.007,-0.045 -0.008,-0.091c-0.001,-0.04 0,-0.168 0.002,-0.178c0.001,-0.004 0.005,-0.008 0.01,-0.008c0.026,-0.001 0.04,0.001 0.05,0.004c0.012,0.003 0.021,0.012 0.031,0.023c0.014,0.017 0.098,0.155 0.149,0.22c0.037,0.046 0.077,0.079 0.138,0.079c0.014,0 0.03,-0.001 0.038,-0.004c0.008,-0.003 0.012,-0.006 0.012,-0.008c0,-0.003 -0.005,-0.006 -0.013,-0.006c-0.018,0 -0.047,-0.009 -0.079,-0.041c-0.021,-0.021 -0.042,-0.046 -0.073,-0.088c-0.028,-0.038 -0.093,-0.14 -0.113,-0.179c-0.004,-0.01 -0.006,-0.017 -0.002,-0.019c0.016,-0.006 0.044,-0.018 0.061,-0.033c0.023,-0.018 0.057,-0.047 0.057,-0.114c0,-0.044 -0.019,-0.089 -0.062,-0.12c-0.033,-0.024 -0.072,-0.035 -0.132,-0.035Zm-0.034,0.015c0.06,0 0.096,0.015 0.123,0.04c0.026,0.024 0.042,0.062 0.042,0.115c0,0.054 -0.032,0.095 -0.06,0.115c-0.02,0.013 -0.082,0.021 -0.111,0.021c-0.008,0 -0.021,0 -0.027,-0.001c-0.003,0 -0.007,-0.003 -0.007,-0.018c0,-0.016 0,-0.228 0.001,-0.248c0.001,-0.016 0.004,-0.016 0.006,-0.017c0.005,-0.003 0.02,-0.007 0.033,-0.007Z" style="fill:rgb(22,62,100);fill-rule:nonzero;"/>
                </g>
                <g transform="matrix(48,0,0,48,418.902486,209.5)">
                    <path d="M0.385,-0.649c-0.088,0 -0.174,0.035 -0.226,0.082c-0.064,0.058 -0.113,0.136 -0.113,0.257c0,0.084 0.043,0.178 0.083,0.219c0.064,0.065 0.138,0.109 0.256,0.109c0.08,0 0.137,-0.023 0.197,-0.058c0.004,-0.003 0.007,-0.007 0.008,-0.011c0.002,-0.012 0.014,-0.065 0.014,-0.082c0,-0.007 -0.002,-0.015 -0.006,-0.015c-0.003,0 -0.006,0.004 -0.01,0.018c-0.014,0.042 -0.039,0.077 -0.078,0.1c-0.028,0.017 -0.065,0.027 -0.121,0.027c-0.055,-0 -0.127,-0.021 -0.177,-0.074c-0.05,-0.054 -0.095,-0.148 -0.095,-0.244c0,-0.098 0.036,-0.188 0.074,-0.229c0.039,-0.041 0.096,-0.084 0.186,-0.084c0.056,0 0.119,0.017 0.156,0.052c0.017,0.014 0.039,0.046 0.047,0.08c0.002,0.007 0.005,0.013 0.009,0.013c0.003,0 0.006,-0.007 0.006,-0.016c0,-0.011 -0.005,-0.051 -0.002,-0.075c0,-0.005 -0.003,-0.012 -0.009,-0.016c-0.032,-0.019 -0.117,-0.053 -0.199,-0.053Z" style="fill:rgb(22,62,100);fill-rule:nonzero;"/>
                </g>
                <g transform="matrix(48,0,0,48,451.9066,209.5)">
                    <path d="M0.105,-0.32c0,0.157 -0.002,0.229 -0.004,0.26c-0.002,0.031 -0.009,0.041 -0.043,0.048c-0.01,0.002 -0.017,0.005 -0.017,0.01c0,0.003 0.006,0.006 0.016,0.006c0.015,0 0.048,-0.004 0.073,-0.004c0.03,-0 0.063,0.005 0.082,0.005c0.01,0 0.017,-0.002 0.017,-0.006c0,-0.003 -0.003,-0.007 -0.017,-0.01c-0.019,-0.005 -0.035,-0.013 -0.039,-0.034c-0.004,-0.02 -0.01,-0.111 -0.01,-0.235c0,-0.017 0.004,-0.025 0.007,-0.025c0.012,0 0.073,0.001 0.12,0.001c0.098,0 0.241,0.002 0.273,0.004c0.006,0 0.006,0.01 0.007,0.024c0.002,0.02 0,0.156 -0.001,0.207c-0.001,0.043 -0.011,0.049 -0.045,0.056c-0.012,0.002 -0.016,0.005 -0.016,0.008c0,0.005 0.007,0.007 0.019,0.007c0.018,0 0.05,-0.002 0.069,-0.002c0.022,-0 0.076,0.003 0.09,0.003c0.01,0 0.015,-0.002 0.015,-0.006c0,-0.004 -0.004,-0.006 -0.015,-0.009c-0.043,-0.009 -0.048,-0.022 -0.05,-0.072c-0.003,-0.104 -0.003,-0.146 -0.005,-0.214c-0.002,-0.069 -0.003,-0.209 -0.002,-0.249c0,-0.047 0.002,-0.065 0.046,-0.074c0.011,-0.003 0.014,-0.006 0.014,-0.009c0,-0.004 -0.005,-0.005 -0.016,-0.005c-0.018,0 -0.041,0.004 -0.072,0.004c-0.03,0 -0.064,-0.004 -0.086,-0.004c-0.009,0 -0.013,0.003 -0.013,0.005c0,0.004 0.006,0.007 0.014,0.008c0.044,0.006 0.044,0.024 0.047,0.087c0.002,0.037 0.006,0.15 0.004,0.183c-0.001,0.015 -0.002,0.017 -0.009,0.018c-0.005,0 -0.017,0.003 -0.109,0.003c-0.099,0 -0.249,0.001 -0.277,-0.001c-0.006,-0.001 -0.008,-0.01 -0.008,-0.02c0,-0.019 0.001,-0.188 0.003,-0.212c0.003,-0.033 0.008,-0.049 0.044,-0.057c0.008,-0.001 0.013,-0.005 0.013,-0.008c0,-0.004 -0.004,-0.006 -0.015,-0.006c-0.013,0 -0.05,0.004 -0.075,0.004c-0.03,0 -0.059,-0.005 -0.075,-0.005c-0.011,0 -0.017,0.001 -0.017,0.006c0,0.003 0.005,0.007 0.016,0.009c0.043,0.011 0.041,0.023 0.044,0.081c0.002,0.038 0.003,0.168 0.003,0.22Z" style="fill:rgb(22,62,100);fill-rule:nonzero;"/>
                </g>
            </g>
        </g>
        <g transform="matrix(4.166667,0,0,4.166667,-1.041667,-80.208333)">
            <g>
                <g transform="matrix(48,0,0,48,252.7497,255.5)">
                    <path d="M0.042,-0.628c0,0.005 0.01,0.007 0.016,0.008c0.028,0.003 0.04,0.014 0.041,0.033c0.002,0.02 0.007,0.153 0.007,0.235c0,0.157 -0.001,0.272 -0.002,0.295c-0.002,0.033 -0.013,0.04 -0.043,0.046c-0.014,0.003 -0.017,0.006 -0.017,0.009c0,0.005 0.009,0.006 0.018,0.006c0.011,0 0.036,-0.004 0.061,-0.004c0.047,-0 0.066,0.005 0.096,0.005c0.009,0 0.016,-0.002 0.016,-0.007c0,-0.004 -0.005,-0.007 -0.02,-0.009c-0.031,-0.005 -0.043,-0.015 -0.046,-0.054c-0.002,-0.028 -0.004,-0.096 -0.004,-0.204c0,-0.107 -0.001,-0.317 -0.001,-0.335c0,-0.009 0.005,-0.017 0.009,-0.019c0.008,-0.003 0.032,-0.007 0.051,-0.007c0.052,0 0.087,0.02 0.119,0.054c0.042,0.042 0.05,0.103 0.05,0.133c0,0.145 -0.102,0.171 -0.135,0.171c-0.01,0 -0.013,0 -0.022,-0.001c-0.008,-0.001 -0.011,0.002 -0.011,0.004c0,0.004 0.006,0.007 0.012,0.009c0.006,0.002 0.018,0.004 0.032,0.004c0.025,0 0.069,-0.005 0.104,-0.03c0.036,-0.024 0.084,-0.068 0.084,-0.163c0,-0.044 -0.017,-0.095 -0.052,-0.131c-0.038,-0.042 -0.099,-0.064 -0.179,-0.064c-0.017,0 -0.074,0.006 -0.097,0.007c-0.027,0.001 -0.056,0.002 -0.071,0.002c-0.009,0 -0.016,0.004 -0.016,0.007Z" style="fill:rgb(22,62,100);fill-rule:nonzero;"/>
                </g>
                <g transform="matrix(48,0,0,48,279.7417,255.5)">
                    <path d="M0.236,-0.636c-0.033,0 -0.07,0.005 -0.107,0.005c-0.036,0 -0.06,-0.004 -0.074,-0.004c-0.013,0 -0.018,0.003 -0.018,0.006c0,0.005 0.008,0.007 0.017,0.009c0.042,0.007 0.044,0.021 0.046,0.05c0.002,0.032 0.006,0.085 0.006,0.225c0,0.145 -0.002,0.22 -0.005,0.277c-0.003,0.042 -0.014,0.051 -0.045,0.057c-0.013,0.003 -0.02,0.005 -0.02,0.009c0,0.005 0.007,0.007 0.017,0.007c0.019,0 0.048,-0.005 0.085,-0.005c0.034,-0 0.053,0.005 0.074,0.005c0.012,0 0.02,-0.003 0.02,-0.007c0,-0.004 -0.004,-0.006 -0.015,-0.008c-0.036,-0.006 -0.043,-0.016 -0.047,-0.028c-0.003,-0.009 -0.007,-0.045 -0.008,-0.091c-0.001,-0.04 0,-0.168 0.002,-0.178c0.001,-0.004 0.005,-0.008 0.01,-0.008c0.026,-0.001 0.04,0.001 0.05,0.004c0.012,0.003 0.021,0.012 0.031,0.023c0.014,0.017 0.098,0.155 0.149,0.22c0.037,0.046 0.077,0.079 0.138,0.079c0.014,0 0.03,-0.001 0.038,-0.004c0.008,-0.003 0.012,-0.006 0.012,-0.008c0,-0.003 -0.005,-0.006 -0.013,-0.006c-0.018,0 -0.047,-0.009 -0.079,-0.041c-0.021,-0.021 -0.042,-0.046 -0.073,-0.088c-0.028,-0.038 -0.093,-0.14 -0.113,-0.179c-0.004,-0.01 -0.006,-0.017 -0.002,-0.019c0.016,-0.006 0.044,-0.018 0.061,-0.033c0.023,-0.018 0.057,-0.047 0.057,-0.114c0,-0.044 -0.019,-0.089 -0.062,-0.12c-0.033,-0.024 -0.072,-0.035 -0.132,-0.035Zm-0.034,0.015c0.06,0 0.096,0.015 0.123,0.04c0.026,0.024 0.042,0.062 0.042,0.115c0,0.054 -0.032,0.095 -0.06,0.115c-0.02,0.013 -0.082,0.021 -0.111,0.021c-0.008,0 -0.021,0 -0.027,-0.001c-0.003,0 -0.007,-0.003 -0.007,-0.018c0,-0.016 0,-0.228 0.001,-0.248c0.001,-0.016 0.004,-0.016 0.006,-0.017c0.005,-0.003 0.02,-0.007 0.033,-0.007Z" style="fill:rgb(22,62,100);fill-rule:nonzero;"/>
                </g>
                <g transform="matrix(48,0,0,48,309.1337,255.5)">
                    <path d="M0.368,-0.649c-0.064,0 -0.142,0.024 -0.193,0.064c-0.096,0.073 -0.129,0.161 -0.129,0.261c-0,0.183 0.148,0.342 0.326,0.342c0.044,-0 0.089,-0.012 0.129,-0.03c0.077,-0.034 0.187,-0.134 0.187,-0.296c0,-0.186 -0.151,-0.341 -0.32,-0.341Zm-0.02,0.015c0.083,0 0.138,0.036 0.177,0.08c0.06,0.068 0.094,0.162 0.094,0.247c0,0.136 -0.066,0.229 -0.121,0.27c-0.034,0.025 -0.069,0.036 -0.108,0.036c-0.057,0 -0.133,-0.02 -0.201,-0.111c-0.043,-0.058 -0.073,-0.14 -0.073,-0.211c0,-0.078 0.019,-0.171 0.075,-0.236c0.034,-0.039 0.101,-0.075 0.157,-0.075Z" style="fill:rgb(22,62,100);fill-rule:nonzero;"/>
                </g>
                <g transform="matrix(48,0,0,48,347.3577,255.5)">
                    <path d="M0.412,-0.649c-0.126,0 -0.186,0.038 -0.232,0.072c-0.094,0.072 -0.134,0.159 -0.134,0.262c0,0.098 0.037,0.18 0.107,0.239c0.064,0.057 0.145,0.094 0.254,0.094c0.055,0 0.103,-0.018 0.148,-0.039c0.022,-0.011 0.039,-0.02 0.047,-0.024c0.008,-0.004 0.007,-0.011 0.007,-0.024c0,-0.014 -0.005,-0.086 -0.005,-0.128c0,-0.053 0.006,-0.06 0.02,-0.063c0.007,-0.002 0.019,-0.005 0.019,-0.01c0,-0.004 -0.007,-0.006 -0.016,-0.006c-0.008,0 -0.022,0.002 -0.058,0.002c-0.035,0 -0.061,-0.003 -0.077,-0.003c-0.02,-0.001 -0.024,0.003 -0.024,0.006c0,0.004 0.007,0.007 0.017,0.008c0.044,0.006 0.056,0.017 0.059,0.052c0.003,0.031 0.001,0.092 -0.001,0.112c-0.002,0.024 -0.002,0.04 -0.015,0.055c-0.025,0.025 -0.073,0.046 -0.125,0.046c-0.054,-0 -0.115,-0.021 -0.163,-0.059c-0.053,-0.043 -0.121,-0.134 -0.121,-0.252c0,-0.11 0.038,-0.191 0.086,-0.243c0.046,-0.049 0.12,-0.082 0.196,-0.082c0.106,0 0.162,0.04 0.192,0.112c0.006,0.014 0.007,0.016 0.012,0.016c0.003,0 0.007,-0.006 0.004,-0.019c-0.002,-0.012 -0.008,-0.05 -0.008,-0.056c0,-0.011 -0.004,-0.021 -0.01,-0.024c-0.01,-0.005 -0.044,-0.018 -0.068,-0.025c-0.023,-0.005 -0.062,-0.019 -0.111,-0.019Z" style="fill:rgb(22,62,100);fill-rule:nonzero;"/>
                </g>
                <g transform="matrix(48,0,0,48,383.5657,255.5)">
                    <path d="M0.236,-0.636c-0.033,0 -0.07,0.005 -0.107,0.005c-0.036,0 -0.06,-0.004 -0.074,-0.004c-0.013,0 -0.018,0.003 -0.018,0.006c0,0.005 0.008,0.007 0.017,0.009c0.042,0.007 0.044,0.021 0.046,0.05c0.002,0.032 0.006,0.085 0.006,0.225c0,0.145 -0.002,0.22 -0.005,0.277c-0.003,0.042 -0.014,0.051 -0.045,0.057c-0.013,0.003 -0.02,0.005 -0.02,0.009c0,0.005 0.007,0.007 0.017,0.007c0.019,0 0.048,-0.005 0.085,-0.005c0.034,-0 0.053,0.005 0.074,0.005c0.012,0 0.02,-0.003 0.02,-0.007c0,-0.004 -0.004,-0.006 -0.015,-0.008c-0.036,-0.006 -0.043,-0.016 -0.047,-0.028c-0.003,-0.009 -0.007,-0.045 -0.008,-0.091c-0.001,-0.04 0,-0.168 0.002,-0.178c0.001,-0.004 0.005,-0.008 0.01,-0.008c0.026,-0.001 0.04,0.001 0.05,0.004c0.012,0.003 0.021,0.012 0.031,0.023c0.014,0.017 0.098,0.155 0.149,0.22c0.037,0.046 0.077,0.079 0.138,0.079c0.014,0 0.03,-0.001 0.038,-0.004c0.008,-0.003 0.012,-0.006 0.012,-0.008c0,-0.003 -0.005,-0.006 -0.013,-0.006c-0.018,0 -0.047,-0.009 -0.079,-0.041c-0.021,-0.021 -0.042,-0.046 -0.073,-0.088c-0.028,-0.038 -0.093,-0.14 -0.113,-0.179c-0.004,-0.01 -0.006,-0.017 -0.002,-0.019c0.016,-0.006 0.044,-0.018 0.061,-0.033c0.023,-0.018 0.057,-0.047 0.057,-0.114c0,-0.044 -0.019,-0.089 -0.062,-0.12c-0.033,-0.024 -0.072,-0.035 -0.132,-0.035Zm-0.034,0.015c0.06,0 0.096,0.015 0.123,0.04c0.026,0.024 0.042,0.062 0.042,0.115c0,0.054 -0.032,0.095 -0.06,0.115c-0.02,0.013 -0.082,0.021 -0.111,0.021c-0.008,0 -0.021,0 -0.027,-0.001c-0.003,0 -0.007,-0.003 -0.007,-0.018c0,-0.016 0,-0.228 0.001,-0.248c0.001,-0.016 0.004,-0.016 0.006,-0.017c0.005,-0.003 0.02,-0.007 0.033,-0.007Z" style="fill:rgb(22,62,100);fill-rule:nonzero;"/>
                </g>
                <g transform="matrix(48,0,0,48,412.9577,255.5)">
                    <path d="M0.333,-0.646c-0.004,0 -0.005,0.006 -0.006,0.01c-0.004,0.025 -0.022,0.043 -0.028,0.05c-0.001,0.001 -0.003,0.007 -0.003,0.011c0,0.009 -0.001,0.016 -0.006,0.029c-0.062,0.154 -0.152,0.377 -0.179,0.434c-0.039,0.085 -0.045,0.092 -0.091,0.101c-0.01,0.002 -0.02,0.004 -0.02,0.009c0,0.005 0.006,0.007 0.017,0.007c0.021,0 0.038,-0.005 0.063,-0.005c0.037,-0 0.08,0.005 0.099,0.005c0.01,0 0.019,-0.002 0.019,-0.007c0,-0.003 -0.005,-0.007 -0.015,-0.009c-0.019,-0.004 -0.033,-0.008 -0.041,-0.016c-0.011,-0.011 -0.012,-0.029 0,-0.07c0.016,-0.054 0.046,-0.13 0.055,-0.15c0.003,-0.007 0.011,-0.02 0.014,-0.02c0.022,-0.001 0.159,0 0.196,-0.003c0.003,0 0.009,0.006 0.012,0.012c0.037,0.097 0.073,0.189 0.073,0.201c0,0.019 -0.001,0.039 -0.046,0.045c-0.009,0.001 -0.019,0.005 -0.019,0.009c0,0.004 0.006,0.007 0.016,0.007c0.021,0 0.063,-0.004 0.09,-0.004c0.054,-0 0.065,0.003 0.081,0.003c0.009,0 0.018,-0.002 0.018,-0.007c0,-0.003 -0.006,-0.007 -0.017,-0.009c-0.026,-0.006 -0.035,-0.015 -0.061,-0.077c-0.067,-0.156 -0.109,-0.256 -0.186,-0.462c-0.014,-0.035 -0.024,-0.06 -0.028,-0.086c-0.002,-0.006 -0.004,-0.008 -0.007,-0.008Zm0.064,0.345c-0.012,0.004 -0.059,0.004 -0.093,0.004c-0.038,0 -0.064,0 -0.08,-0.001c-0.005,0 -0.004,-0.009 -0.003,-0.009c0.014,-0.042 0.054,-0.153 0.082,-0.221c0.003,-0.007 0.005,-0.01 0.008,-0.003c0.017,0.041 0.041,0.094 0.086,0.22c0.001,0.004 0.002,0.009 0,0.01Z" style="fill:rgb(22,62,100);fill-rule:nonzero;"/>
                </g>
                <g transform="matrix(48,0,0,48,446.9577,255.5)">
                    <path d="M0.017,-0.63c0,0.003 0.006,0.007 0.016,0.009c0.019,0.005 0.038,0.006 0.056,0.027c0.017,0.02 0.024,0.035 0.024,0.095c0,0.059 -0.014,0.289 -0.02,0.348c-0.006,0.058 -0.011,0.093 -0.021,0.107c-0.011,0.015 -0.022,0.029 -0.054,0.034c-0.013,0.002 -0.018,0.006 -0.018,0.009c0,0.005 0.006,0.007 0.017,0.007c0.01,0 0.037,-0.006 0.074,-0.006c0.037,-0 0.073,0.004 0.083,0.005c0.011,0.001 0.02,-0.001 0.02,-0.006c0,-0.004 -0.006,-0.008 -0.017,-0.01c-0.02,-0.005 -0.045,-0.014 -0.051,-0.038c-0.006,-0.022 -0.006,-0.045 -0.006,-0.075c0,-0.029 0.012,-0.298 0.016,-0.363c0.001,-0.013 0.004,-0.013 0.009,-0.005c0.043,0.089 0.171,0.35 0.222,0.456c0.011,0.023 0.019,0.04 0.024,0.04c0.005,-0 0.009,-0.006 0.014,-0.016c0.051,-0.113 0.181,-0.36 0.248,-0.492c0.002,-0.005 0.005,-0.009 0.005,0.004c0,0.04 0,0.32 -0.003,0.375c-0.003,0.085 -0.01,0.099 -0.052,0.11c-0.011,0.001 -0.021,0.005 -0.021,0.009c0,0.007 0.011,0.008 0.022,0.008c0.015,0 0.032,-0.002 0.075,-0.002c0.022,-0 0.079,0.006 0.091,0.006c0.013,0 0.018,-0.002 0.018,-0.006c0,-0.005 -0.006,-0.008 -0.015,-0.011c-0.039,-0.011 -0.05,-0.019 -0.054,-0.078c-0.002,-0.031 -0.005,-0.129 -0.005,-0.238c0,-0.051 0.001,-0.179 0.003,-0.21c0.003,-0.06 0.008,-0.071 0.067,-0.086c0.007,-0.001 0.014,-0.005 0.014,-0.008c0,-0.004 -0.006,-0.006 -0.014,-0.006c-0.015,0 -0.078,0.006 -0.098,0.006c-0.005,0 -0.008,0.01 -0.009,0.012c-0.006,0.02 -0.021,0.062 -0.03,0.081c-0.025,0.05 -0.154,0.297 -0.227,0.436c-0.004,0.007 -0.006,0.012 -0.01,0.005c-0.075,-0.141 -0.215,-0.418 -0.262,-0.52c-0.005,-0.011 -0.01,-0.014 -0.013,-0.014c-0.023,0 -0.082,-0.003 -0.099,-0.004c-0.01,-0.001 -0.019,0.001 -0.019,0.005Z" style="fill:rgb(22,62,100);fill-rule:nonzero;"/>
                </g>
            </g>
        </g>
        <g transform="matrix(4.166667,0,0,4.166667,-1.041667,-80.208333)">
            <g>
                <g transform="matrix(72,0,0,72,252.7496,85.5)">
                    <path d="M0.417,-0.452c0,0.115 -0.074,0.162 -0.127,0.162l-0.025,0c-0.008,0 -0.012,0.005 -0.012,0.009c0,0.006 0.005,0.011 0.017,0.016c0.016,0.006 0.042,0.007 0.053,0.007c0.043,0 0.089,-0.022 0.115,-0.044c0.029,-0.025 0.07,-0.066 0.07,-0.155c0,-0.033 -0.01,-0.09 -0.058,-0.136c-0.037,-0.035 -0.096,-0.059 -0.187,-0.059c-0.05,0 -0.127,0.008 -0.167,0.008c-0.009,0 -0.026,-0.001 -0.033,0c-0.013,0.001 -0.023,0.006 -0.023,0.014c0,0.006 0.011,0.012 0.031,0.015c0.056,0.008 0.055,0.022 0.056,0.058c0.001,0.032 0.003,0.244 0.003,0.277c0,0.05 -0.002,0.132 -0.005,0.181c-0.003,0.041 -0.014,0.061 -0.07,0.073c-0.01,0.003 -0.02,0.009 -0.02,0.016c0,0.009 0.011,0.014 0.028,0.014c0.031,0 0.072,-0.004 0.101,-0.004c0.044,-0 0.08,0.004 0.105,0.004c0.015,0 0.033,-0.003 0.033,-0.012c0,-0.009 -0.008,-0.014 -0.027,-0.019c-0.051,-0.015 -0.059,-0.023 -0.06,-0.088c0,-0.025 -0.002,-0.108 -0.002,-0.199c0.001,-0.115 0.001,-0.239 0.002,-0.26c0.001,-0.024 0.006,-0.036 0.01,-0.039c0.008,-0.005 0.018,-0.009 0.029,-0.009c0.094,0 0.163,0.079 0.163,0.17Z" style="fill:rgb(22,62,100);fill-rule:nonzero;"/>
                </g>
                <g transform="matrix(72,0,0,72,284.9996,85.5)">
                    <path d="M0.353,-0.661c-0.005,0 -0.009,0.005 -0.016,0.013c-0.007,0.011 -0.018,0.03 -0.024,0.04c-0.004,0.008 -0.006,0.014 -0.007,0.017c-0.002,0.006 -0.003,0.012 -0.009,0.026c-0.042,0.102 -0.156,0.404 -0.179,0.455c-0.029,0.065 -0.042,0.068 -0.092,0.085c-0.015,0.005 -0.022,0.014 -0.022,0.02c0,0.006 0.005,0.01 0.023,0.01c0.015,-0 0.067,-0.005 0.104,-0.005c0.037,-0 0.062,0.003 0.079,0.003c0.013,0 0.028,-0.003 0.028,-0.013c0,-0.007 -0.01,-0.013 -0.027,-0.018c-0.045,-0.014 -0.049,-0.031 -0.049,-0.043c0,-0.025 0.026,-0.11 0.052,-0.175c0.002,-0.003 0.007,-0.008 0.011,-0.008c0.021,-0.003 0.109,-0.004 0.164,-0.004c0.029,0 0.033,0.006 0.034,0.01c0.023,0.064 0.048,0.13 0.056,0.171c0.004,0.021 0.008,0.041 -0.04,0.051c-0.018,0.003 -0.024,0.011 -0.024,0.016c0,0.005 0.006,0.012 0.031,0.012c0.025,0 0.039,-0.002 0.071,-0.002c0.044,-0 0.093,0.005 0.126,0.005c0.025,0 0.032,-0.006 0.032,-0.013c0,-0.007 -0.008,-0.012 -0.024,-0.017c-0.045,-0.011 -0.061,-0.019 -0.094,-0.101c-0.017,-0.041 -0.092,-0.239 -0.144,-0.385c-0.019,-0.052 -0.036,-0.097 -0.044,-0.124c-0.008,-0.022 -0.012,-0.026 -0.016,-0.026Zm0.045,0.358c-0.033,0.003 -0.116,0.002 -0.156,0.003c-0.004,0 -0.006,-0.003 -0.005,-0.007c0.008,-0.031 0.06,-0.171 0.078,-0.219c0.003,-0.007 0.005,-0.006 0.008,0c0.009,0.014 0.061,0.164 0.078,0.215c0.001,0.003 -0.002,0.008 -0.003,0.008Z" style="fill:rgb(22,62,100);fill-rule:nonzero;"/>
                </g>
                <g transform="matrix(72,0,0,72,333.5341,85.5)">
                    <path d="M0.015,-0.634c0,0.008 0.011,0.013 0.022,0.016c0.045,0.012 0.056,0.013 0.084,0.046c0.002,0.003 0.007,0.012 0.007,0.048c0,0.083 -0.014,0.323 -0.019,0.404c-0.004,0.074 -0.023,0.078 -0.07,0.094c-0.01,0.003 -0.02,0.009 -0.02,0.017c0,0.01 0.012,0.011 0.026,0.011c0.017,0 0.043,-0.002 0.065,-0.002c0.036,-0 0.078,0.005 0.107,0.005c0.019,0 0.032,-0.003 0.032,-0.013c0,-0.006 -0.004,-0.013 -0.025,-0.018c-0.048,-0.014 -0.059,-0.029 -0.063,-0.075c-0.002,-0.031 0.001,-0.185 0.001,-0.275c0.001,-0.078 0.004,-0.106 0.005,-0.133c0,-0.005 0.007,-0.007 0.011,-0.002c0.09,0.108 0.263,0.303 0.357,0.415c0.027,0.033 0.045,0.059 0.062,0.08c0.009,0.012 0.031,0.032 0.045,0.032c0.009,0 0.014,-0.011 0.014,-0.021c0,-0.016 -0.007,-0.091 -0.007,-0.133c0,-0.172 0.009,-0.369 0.011,-0.405c0.003,-0.054 0.021,-0.063 0.064,-0.073c0.018,-0.005 0.024,-0.014 0.024,-0.02c0,-0.008 -0.006,-0.011 -0.023,-0.011c-0.026,0 -0.058,0.004 -0.094,0.004c-0.032,0 -0.06,-0.001 -0.086,-0.001c-0.012,0 -0.026,0.002 -0.026,0.009c0,0.008 0.007,0.016 0.027,0.022c0.055,0.016 0.062,0.04 0.063,0.061c0.003,0.031 0.005,0.066 0.005,0.1c0,0.144 0.003,0.252 -0.002,0.284c0,0.003 -0.004,0.013 -0.01,0.007c-0.067,-0.073 -0.287,-0.313 -0.332,-0.37c-0.039,-0.051 -0.064,-0.081 -0.079,-0.099c-0.006,-0.006 -0.015,-0.013 -0.021,-0.013c-0.051,0 -0.1,-0.003 -0.122,-0.003c-0.023,0 -0.033,0.004 -0.033,0.012Z" style="fill:rgb(22,62,100);fill-rule:nonzero;"/>
                </g>
                <g transform="matrix(72,0,0,72,389.1246,85.5)">
                    <path d="M0.341,-0.643c-0.128,0 -0.208,-0.003 -0.234,-0.006c-0.015,-0.001 -0.031,-0.016 -0.034,-0.019c-0.011,-0.009 -0.011,-0.016 -0.016,-0.016c-0.006,0 -0.015,0.01 -0.015,0.016c0,0.059 -0.019,0.114 -0.019,0.133c0,0.01 0.004,0.023 0.01,0.023c0.004,0 0.01,0.001 0.019,-0.02c0.017,-0.033 0.029,-0.049 0.033,-0.052c0.015,-0.017 0.036,-0.023 0.074,-0.023c0.016,0 0.104,0.002 0.124,0.005c0.003,0 0.008,0.005 0.008,0.013l0,0.119c0,0.077 -0.005,0.281 -0.007,0.34c-0.003,0.075 -0.005,0.092 -0.075,0.108c-0.009,0.002 -0.019,0.01 -0.019,0.017c0,0.006 0.01,0.012 0.03,0.012c0.013,0 0.064,-0.007 0.114,-0.007c0.044,-0 0.106,0.005 0.114,0.005c0.01,0 0.028,-0.001 0.028,-0.012c0,-0.007 -0.014,-0.015 -0.027,-0.018c-0.062,-0.014 -0.067,-0.026 -0.072,-0.071c-0.004,-0.037 -0.004,-0.132 -0.004,-0.248l0,-0.245c0,-0.002 0.004,-0.012 0.009,-0.013c0.012,-0.003 0.123,-0.003 0.14,-0.002c0.062,0.003 0.075,0.008 0.081,0.06c0.003,0.025 0.007,0.032 0.014,0.032c0.008,0 0.016,-0.01 0.017,-0.019c0.006,-0.052 0.012,-0.084 0.022,-0.115c0.005,-0.014 0.001,-0.023 -0.004,-0.023c-0.004,0 -0.007,0.002 -0.014,0.006c-0.014,0.01 -0.032,0.016 -0.068,0.018c-0.041,0.001 -0.177,0.002 -0.229,0.002Z" style="fill:rgb(22,62,100);fill-rule:nonzero;"/>
                </g>
                <g transform="matrix(72,0,0,72,430.1246,85.5)">
                    <path d="M0.353,-0.661c-0.005,0 -0.009,0.005 -0.016,0.013c-0.007,0.011 -0.018,0.03 -0.024,0.04c-0.004,0.008 -0.006,0.014 -0.007,0.017c-0.002,0.006 -0.003,0.012 -0.009,0.026c-0.042,0.102 -0.156,0.404 -0.179,0.455c-0.029,0.065 -0.042,0.068 -0.092,0.085c-0.015,0.005 -0.022,0.014 -0.022,0.02c0,0.006 0.005,0.01 0.023,0.01c0.015,-0 0.067,-0.005 0.104,-0.005c0.037,-0 0.062,0.003 0.079,0.003c0.013,0 0.028,-0.003 0.028,-0.013c0,-0.007 -0.01,-0.013 -0.027,-0.018c-0.045,-0.014 -0.049,-0.031 -0.049,-0.043c0,-0.025 0.026,-0.11 0.052,-0.175c0.002,-0.003 0.007,-0.008 0.011,-0.008c0.021,-0.003 0.109,-0.004 0.164,-0.004c0.029,0 0.033,0.006 0.034,0.01c0.023,0.064 0.048,0.13 0.056,0.171c0.004,0.021 0.008,0.041 -0.04,0.051c-0.018,0.003 -0.024,0.011 -0.024,0.016c0,0.005 0.006,0.012 0.031,0.012c0.025,0 0.039,-0.002 0.071,-0.002c0.044,-0 0.093,0.005 0.126,0.005c0.025,0 0.032,-0.006 0.032,-0.013c0,-0.007 -0.008,-0.012 -0.024,-0.017c-0.045,-0.011 -0.061,-0.019 -0.094,-0.101c-0.017,-0.041 -0.092,-0.239 -0.144,-0.385c-0.019,-0.052 -0.036,-0.097 -0.044,-0.124c-0.008,-0.022 -0.012,-0.026 -0.016,-0.026Zm0.045,0.358c-0.033,0.003 -0.116,0.002 -0.156,0.003c-0.004,0 -0.006,-0.003 -0.005,-0.007c0.008,-0.031 0.06,-0.171 0.078,-0.219c0.003,-0.007 0.005,-0.006 0.008,0c0.009,0.014 0.061,0.164 0.078,0.215c0.001,0.003 -0.002,0.008 -0.003,0.008Z" style="fill:rgb(22,62,100);fill-rule:nonzero;"/>
                </g>
            </g>
        </g>
        <path d="M602.034,111.127c-1.103,-8.815 -6.615,-18.731 -11.025,-16.528c-25.358,15.426 -45.203,18.731 -58.433,18.731c-81.586,0 -208.376,-8.815 -307.602,-8.815c-24.255,0 -97.022,1.102 -140.02,61.703c-13.23,17.629 -26.46,52.888 -24.255,77.129c2.205,17.629 6.615,33.055 15.435,33.055c3.308,0 9.923,-2.204 11.025,-6.611c15.435,-65.008 63.946,-92.554 131.2,-92.554c11.025,0 22.05,1.102 35.281,1.102c1.103,0 2.205,4.407 3.308,5.509c-27.563,138.831 -84.894,317.329 -84.894,330.551c0,14.324 7.718,29.75 17.64,36.361c7.718,5.509 29.768,13.222 46.306,13.222c6.615,0 16.538,-7.713 15.435,-14.324c-4.41,-16.528 -8.82,-49.583 -9.923,-56.194c-6.615,-72.721 27.563,-213.756 58.433,-297.496c3.308,-7.713 11.025,-13.222 14.333,-13.222c4.41,0 77.176,7.713 87.099,8.815c5.513,0 9.923,5.509 8.82,16.528c-11.025,73.823 -29.768,222.571 -25.358,262.237c1.103,15.426 3.308,37.462 14.333,57.296c11.025,17.629 29.768,30.851 55.126,30.851c42.998,0 73.869,-46.277 82.689,-85.943c3.308,-9.917 -3.308,-24.24 -7.718,-23.139c-16.538,5.509 -42.998,8.815 -60.638,3.306c-25.358,-6.611 -41.896,-27.546 -44.101,-57.296c-2.205,-27.546 22.05,-133.322 35.281,-191.72c0,-3.306 6.615,-6.611 7.718,-7.713c29.768,1.102 81.586,2.204 92.611,-1.102c11.025,-4.407 44.101,-62.805 41.896,-83.74Z" style="fill:rgb(22,62,100);fill-rule:nonzero;"/>
        <path d="M613.08,642.028c0,-4.407 6.615,-4.407 7.718,-2.204c17.64,25.342 41.896,44.073 69.459,44.073c33.076,0 81.586,-14.324 132.302,-59.499c67.254,-60.601 108.047,-146.544 108.047,-237.997c0,-96.962 -55.126,-174.09 -135.61,-174.09c-26.46,0 -62.843,5.509 -101.432,33.055c-58.433,42.972 -97.022,117.897 -117.969,233.589c-26.46,145.442 -41.896,265.543 -51.818,307.412c-13.23,58.397 -27.563,79.332 -70.561,79.332c-18.743,0 -62.843,-13.222 -70.561,-16.528c-3.308,-1.102 -11.025,5.509 -12.128,6.611c-1.103,2.204 -16.538,27.546 -16.538,44.073c0,13.222 6.615,29.75 12.128,37.462c5.513,6.611 31.973,18.731 56.228,18.731c25.358,0 95.919,-25.342 143.327,-136.628c24.255,-60.601 45.203,-167.479 47.408,-177.396Zm190.735,-343.773c45.203,0 73.869,38.564 73.869,82.638c0,96.962 -90.406,215.96 -201.761,215.96c-17.64,0 -31.973,-6.611 -38.588,-15.426c-4.41,-6.611 -4.41,-18.731 -2.205,-36.361c35.281,-198.331 104.739,-246.811 168.685,-246.811Z" style="fill:rgb(22,62,100);fill-rule:nonzero;"/>
        <path d="M1052.083,618.75l971.519,0" style="fill:none;fill-rule:nonzero;stroke:rgb(22,62,100);stroke-width:2.08px;"/>
    </g>
</svg>
